<?xml version="1.0" encoding="utf-8" standalone="no"?>
<!DOCTYPE svg PUBLIC "-//W3C//DTD SVG 1.1//EN"
  "http://www.w3.org/Graphics/SVG/1.1/DTD/svg11.dtd">
<!-- Created with matplotlib (http://matplotlib.org/) -->
<svg height="360pt" version="1.1" viewBox="0 0 360 360" width="360pt" xmlns="http://www.w3.org/2000/svg" xmlns:xlink="http://www.w3.org/1999/xlink">
 <defs>
  <style type="text/css">
*{stroke-linecap:butt;stroke-linejoin:round;}
  </style>
 </defs>
 <g id="figure_1">
  <g id="patch_1">
   <path d="M 0 360 
L 360 360 
L 360 0 
L 0 0 
z
" style="fill:#ffffff;"/>
  </g>
  <g id="axes_1">
   <g id="line2d_1">
    <path clip-path="url(#p912f84b4ab)" d="M 72.507418 220.39465 
L 67.223385 218.894605 
L 61.379425 217.479627 
L 55.500009 216.270869 
L 51.601841 215.661228 
L 48.195971 215.328897 
L 44.803568 215.231564 
L 41.923491 215.366247 
L 39.081182 215.726636 
L 36.294424 216.329499 
L 34.059356 217.025616 
L 32.405568 217.729846 
L 30.891381 218.58545 
L 30.115442 219.246148 
L 29.581966 219.979776 
L 29.518089 220.466171 
L 29.744039 220.856188 
L 30.41147 221.357094 
L 31.335534 221.697327 
L 32.524081 221.881617 
L 35.398641 222.02685 
L 38.80221 221.951194 
L 43.247516 221.585845 
L 59.190475 220.004411 
L 63.146721 219.967451 
L 70.158619 220.18237 
L 72.507145 220.397282 
L 72.507145 220.397282 
" style="fill:none;opacity:0.7;stroke:#000000;stroke-linecap:square;stroke-width:1.2;"/>
   </g>
   <g id="line2d_2">
    <path clip-path="url(#p912f84b4ab)" d="M 72.50594 204.923372 
L 67.174964 204.04446 
L 60.376464 202.962381 
L 54.531265 202.275359 
L 48.669458 201.821934 
L 43.805025 201.662888 
L 39.944121 201.736597 
L 36.630778 202.013202 
L 33.891404 202.464595 
L 32.209549 202.929982 
L 30.692303 203.572342 
L 29.973661 204.080466 
L 29.569047 204.641422 
L 29.523425 205.034173 
L 29.678254 205.266599 
L 30.172206 205.518946 
L 31.788078 205.822847 
L 34.064699 205.985117 
L 39.444571 206.024803 
L 46.345878 205.84202 
L 72.507068 204.913668 
L 72.507068 204.913668 
" style="fill:none;opacity:0.7;stroke:#000000;stroke-linecap:square;stroke-width:1.2;"/>
   </g>
   <g id="line2d_3">
    <path clip-path="url(#p912f84b4ab)" d="M 72.507969 189.432127 
L 70.748904 188.751395 
L 66.454109 187.085165 
L 63.251804 185.624549 
L 61.597692 184.915293 
L 59.872062 184.498867 
L 56.923039 184.118121 
L 53.411147 183.921909 
L 49.343073 183.949941 
L 45.289742 184.208734 
L 41.781762 184.646746 
L 38.323052 185.304995 
L 34.932914 186.203588 
L 32.674617 187.016186 
L 31.042185 187.817272 
L 30.064711 188.504035 
L 29.578626 189.100101 
L 29.528288 189.487528 
L 29.721349 189.815516 
L 30.146032 190.156623 
L 31.127431 190.591323 
L 32.958492 191.062278 
L 36.417551 191.698628 
L 40.461219 192.189829 
L 44.535936 192.472578 
L 48.613762 192.554522 
L 52.157123 192.433752 
L 55.124823 192.154376 
L 56.884594 191.790287 
L 63.0602 190.011696 
L 66.500934 189.377223 
L 68.930829 189.127107 
L 70.767179 189.122003 
L 72.292399 189.345185 
L 72.507907 189.431946 
L 72.507907 189.431946 
" style="fill:none;opacity:0.7;stroke:#000000;stroke-linecap:square;stroke-width:1.2;"/>
   </g>
   <g id="line2d_4">
    <path clip-path="url(#p912f84b4ab)" d="M 72.50701 173.952108 
L 70.800418 173.195049 
L 67.94765 172.235068 
L 59.461072 169.697675 
L 53.45049 168.092363 
L 48.95129 167.099061 
L 45.493524 166.567383 
L 43.038863 166.385775 
L 40.6129 166.416293 
L 38.772609 166.643927 
L 37.067247 167.093084 
L 35.888747 167.592932 
L 34.333621 168.537938 
L 32.395308 169.985286 
L 31.083031 171.231038 
L 30.296072 172.229066 
L 29.49702 173.531232 
L 29.500366 173.927957 
L 29.709472 174.178283 
L 30.319198 174.436665 
L 31.537728 174.559753 
L 35.080776 174.543989 
L 57.010959 174.243703 
L 71.501392 174.320337 
L 72.262441 174.10325 
L 72.506938 173.952543 
L 72.506938 173.952543 
" style="fill:none;opacity:0.7;stroke:#000000;stroke-linecap:square;stroke-width:1.2;"/>
   </g>
   <g id="line2d_5">
    <path clip-path="url(#p912f84b4ab)" d="M 72.507973 158.229501 
L 58.588746 155.801985 
L 53.134165 155.138467 
L 48.171466 154.767512 
L 43.708268 154.653904 
L 39.766988 154.756437 
L 36.875964 155.016561 
L 34.610702 155.401425 
L 33.451987 155.772192 
L 31.406755 156.688582 
L 30.040603 157.575349 
L 29.54834 158.15346 
L 29.524582 158.499581 
L 29.695554 158.68409 
L 30.117898 158.825643 
L 30.58836 158.772623 
L 33.444947 158.358545 
L 37.381752 158.016523 
L 42.368062 157.823059 
L 48.392315 157.81424 
L 55.437182 158.030919 
L 71.088858 158.66386 
L 72.205239 158.658051 
L 72.506937 158.707552 
L 72.506937 158.707552 
" style="fill:none;opacity:0.7;stroke:#000000;stroke-linecap:square;stroke-width:1.2;"/>
   </g>
   <g id="line2d_6">
    <path clip-path="url(#p912f84b4ab)" d="M 72.507291 142.987346 
L 66.192392 141.426259 
L 59.870795 140.020318 
L 54.516357 139.070021 
L 51.131887 138.684506 
L 47.21619 138.458583 
L 43.304159 138.442935 
L 39.907246 138.626769 
L 37.076349 138.981262 
L 34.810258 139.465937 
L 33.152245 140.016776 
L 31.678148 140.766139 
L 30.367336 141.754734 
L 29.723791 142.460645 
L 29.506103 143.05396 
L 29.640751 143.435774 
L 30.038303 143.825221 
L 30.825022 144.140481 
L 31.961697 144.329576 
L 33.736516 144.365489 
L 36.618051 144.184229 
L 44.049526 143.600946 
L 50.539466 143.380316 
L 61.607343 143.270869 
L 70.556972 143.13182 
L 72.50683 142.988947 
L 72.50683 142.988947 
" style="fill:none;opacity:0.7;stroke:#000000;stroke-linecap:square;stroke-width:1.2;"/>
   </g>
   <g id="line2d_7">
    <path clip-path="url(#p912f84b4ab)" d="M 124.114359 220.227325 
L 121.944098 219.371552 
L 119.213132 218.551542 
L 115.399555 217.684845 
L 110.542749 216.826961 
L 105.647412 216.206133 
L 100.725658 215.816464 
L 96.303729 215.673028 
L 92.403525 215.763389 
L 89.553369 216.017835 
L 87.276648 216.421142 
L 85.131828 217.047832 
L 83.634819 217.744128 
L 82.633231 218.427178 
L 81.549327 219.457419 
L 81.147394 220.131908 
L 81.149464 220.543581 
L 81.330913 220.778393 
L 81.831279 220.964981 
L 82.898773 221.014663 
L 97.925178 220.786138 
L 124.111882 220.563638 
L 124.111882 220.563638 
" style="fill:none;opacity:0.7;stroke:#000000;stroke-linecap:square;stroke-width:1.2;"/>
   </g>
   <g id="line2d_8">
    <path clip-path="url(#p912f84b4ab)" d="M 124.111326 204.850167 
L 116.925189 202.254785 
L 112.598865 200.909891 
L 108.724028 199.924435 
L 104.798595 199.153511 
L 100.837239 198.59546 
L 97.394194 198.323292 
L 94.474351 198.310327 
L 92.085758 198.491943 
L 90.265256 198.803351 
L 88.511888 199.307447 
L 85.400744 200.515529 
L 83.926782 201.394304 
L 82.585178 202.495378 
L 81.49865 203.72692 
L 81.126959 204.482193 
L 81.118778 204.905395 
L 81.32967 205.280943 
L 81.878288 205.665557 
L 82.950202 205.99141 
L 84.732383 206.248022 
L 87.623462 206.395255 
L 90.565436 206.317183 
L 94.548574 205.957208 
L 110.230687 204.197947 
L 113.69392 204.090317 
L 117.170086 204.196725 
L 121.143497 204.557131 
L 124.111081 204.978317 
L 124.111081 204.978317 
" style="fill:none;opacity:0.7;stroke:#000000;stroke-linecap:square;stroke-width:1.2;"/>
   </g>
   <g id="line2d_9">
    <path clip-path="url(#p912f84b4ab)" d="M 124.110907 189.443096 
L 118.242171 188.775178 
L 110.394801 187.630405 
L 99.127516 185.986195 
L 95.283593 185.651188 
L 91.961296 185.594208 
L 89.171456 185.781619 
L 86.940377 186.159584 
L 85.235791 186.636866 
L 83.626558 187.285844 
L 82.256357 188.097702 
L 81.448688 188.808932 
L 81.112541 189.366905 
L 81.19809 189.655062 
L 81.554333 189.935621 
L 82.483598 190.209849 
L 84.190005 190.442972 
L 87.560081 190.582383 
L 103.44536 190.904031 
L 108.845109 190.770864 
L 114.239679 190.425435 
L 121.636715 189.6977 
L 124.112005 189.436252 
L 124.112005 189.436252 
" style="fill:none;opacity:0.7;stroke:#000000;stroke-linecap:square;stroke-width:1.2;"/>
   </g>
   <g id="line2d_10">
    <path clip-path="url(#p912f84b4ab)" d="M 124.111603 173.859861 
L 117.367504 171.609246 
L 112.033554 170.060759 
L 107.145578 168.883077 
L 102.708878 168.038264 
L 98.783706 167.506669 
L 95.876871 167.33895 
L 92.973924 167.40567 
L 90.602951 167.658054 
L 88.31097 168.125359 
L 86.553413 168.675036 
L 84.942864 169.392607 
L 83.5256 170.307789 
L 82.269489 171.457267 
L 81.553136 172.35152 
L 81.169679 173.205766 
L 81.106692 173.949371 
L 81.323946 174.614574 
L 81.755399 175.116178 
L 82.397303 175.422845 
L 83.469389 175.559323 
L 86.402741 175.572417 
L 91.436172 175.346369 
L 107.779477 174.428121 
L 117.988197 174.110296 
L 124.112523 174.043606 
L 124.112523 174.043606 
" style="fill:none;opacity:0.7;stroke:#000000;stroke-linecap:square;stroke-width:1.2;"/>
   </g>
   <g id="line2d_11">
    <path clip-path="url(#p912f84b4ab)" d="M 124.113179 158.472984 
L 118.23194 157.176458 
L 107.926486 154.865044 
L 103.537268 154.144945 
L 100.141337 153.802369 
L 97.247511 153.702201 
L 94.364971 153.810604 
L 91.478017 154.129027 
L 88.144567 154.73787 
L 85.411485 155.48045 
L 83.283183 156.301885 
L 82.241657 156.883062 
L 81.427419 157.55244 
L 81.138941 158.012771 
L 81.10977 158.484629 
L 81.325583 158.926967 
L 81.629691 159.204195 
L 82.580587 159.700983 
L 84.19698 160.211856 
L 87.005236 160.762739 
L 90.401777 161.175811 
L 94.32265 161.431698 
L 97.721482 161.417571 
L 101.135644 161.173375 
L 105.567637 160.612217 
L 120.864971 158.410189 
L 123.194748 158.403421 
L 124.112047 158.467377 
L 124.112047 158.467377 
" style="fill:none;opacity:0.7;stroke:#000000;stroke-linecap:square;stroke-width:1.2;"/>
   </g>
   <g id="line2d_12">
    <path clip-path="url(#p912f84b4ab)" d="M 124.108966 142.970874 
L 109.775079 139.988934 
L 105.839382 139.538247 
L 101.348123 139.283833 
L 96.310868 139.226823 
L 91.307723 139.387102 
L 87.340974 139.726837 
L 84.464935 140.151624 
L 82.843987 140.579431 
L 82.02419 141.015102 
L 81.524642 141.553223 
L 81.186477 142.359763 
L 81.112692 143.167959 
L 81.289909 143.802619 
L 81.736709 144.320108 
L 82.54681 144.808678 
L 83.659219 145.173961 
L 85.994298 145.6508 
L 88.892387 146.012997 
L 92.859032 146.268322 
L 97.352983 146.316232 
L 100.796341 146.154221 
L 104.211633 145.754819 
L 108.140519 145.063536 
L 118.439421 143.066434 
L 120.809159 142.891417 
L 123.174996 142.934229 
L 124.109583 143.012035 
L 124.109583 143.012035 
" style="fill:none;opacity:0.7;stroke:#000000;stroke-linecap:square;stroke-width:1.2;"/>
   </g>
   <g id="line2d_13">
    <path clip-path="url(#p912f84b4ab)" d="M 175.719632 220.395522 
L 159.265579 215.831843 
L 155.395739 215.084568 
L 152.016681 214.64637 
L 149.13 214.466014 
L 146.254569 214.493619 
L 143.375763 214.749755 
L 140.048701 215.296982 
L 138.3224 215.760217 
L 136.676262 216.416545 
L 135.148547 217.258206 
L 134.198223 217.977419 
L 133.434511 218.795843 
L 132.855165 219.699209 
L 132.711307 220.294792 
L 132.835734 220.805188 
L 133.210314 221.267454 
L 133.583164 221.475537 
L 134.60343 221.745872 
L 136.333345 221.885515 
L 139.757666 221.856585 
L 150.880105 221.414624 
L 175.716884 220.396011 
L 175.716884 220.396011 
" style="fill:none;opacity:0.7;stroke:#000000;stroke-linecap:square;stroke-width:1.2;"/>
   </g>
   <g id="line2d_14">
    <path clip-path="url(#p912f84b4ab)" d="M 175.715352 204.922476 
L 171.393305 203.670987 
L 161.163853 200.992944 
L 157.801221 200.371179 
L 154.400436 199.978637 
L 150.977042 199.810646 
L 147.539292 199.856773 
L 143.605831 200.148492 
L 140.729009 200.547497 
L 138.421027 201.055683 
L 136.260803 201.765337 
L 134.750054 202.521638 
L 133.765363 203.225416 
L 133.100964 203.929809 
L 132.77003 204.625448 
L 132.750448 205.061695 
L 132.937871 205.392891 
L 133.210694 205.585506 
L 134.301847 206.015687 
L 135.996116 206.4227 
L 138.858391 206.777841 
L 142.81303 207.036873 
L 147.812138 207.124696 
L 152.807413 206.996043 
L 156.743009 206.683901 
L 161.705424 206.008693 
L 168.671959 205.036228 
L 172.072272 204.786918 
L 174.896315 204.821493 
L 175.716774 204.917179 
L 175.716774 204.917179 
" style="fill:none;opacity:0.7;stroke:#000000;stroke-linecap:square;stroke-width:1.2;"/>
   </g>
   <g id="line2d_15">
    <path clip-path="url(#p912f84b4ab)" d="M 175.717147 189.428293 
L 170.482522 188.166267 
L 165.189849 187.133136 
L 159.861687 186.331581 
L 155.003422 185.817097 
L 150.133477 185.526465 
L 145.741011 185.47217 
L 142.38334 185.600527 
L 139.634445 185.935758 
L 137.451459 186.44279 
L 135.779612 187.030318 
L 134.339663 187.762226 
L 133.475329 188.441645 
L 132.747784 189.238849 
L 132.764957 189.559766 
L 133.055737 189.848212 
L 133.597259 190.020401 
L 135.85322 190.04811 
L 175.716969 189.43389 
L 175.716969 189.43389 
" style="fill:none;opacity:0.7;stroke:#000000;stroke-linecap:square;stroke-width:1.2;"/>
   </g>
   <g id="line2d_16">
    <path clip-path="url(#p912f84b4ab)" d="M 175.717703 173.948129 
L 168.901498 173.247977 
L 159.582179 172.546506 
L 151.255653 172.11683 
L 144.914278 172.017439 
L 140.094044 172.157876 
L 136.801654 172.467406 
L 134.60534 172.853255 
L 133.536256 173.207643 
L 132.938623 173.567966 
L 132.735846 173.928162 
L 132.82986 174.218758 
L 133.284577 174.578871 
L 134.230342 174.945224 
L 135.884383 175.304676 
L 138.681494 175.64286 
L 142.496733 175.851644 
L 147.846706 175.870941 
L 154.199377 175.669231 
L 162.042975 175.191084 
L 172.324828 174.336109 
L 175.717524 173.954927 
L 175.717524 173.954927 
" style="fill:none;opacity:0.7;stroke:#000000;stroke-linecap:square;stroke-width:1.2;"/>
   </g>
   <g id="line2d_17">
    <path clip-path="url(#p912f84b4ab)" d="M 175.717341 158.422093 
L 168.950831 156.60275 
L 164.108092 155.51236 
L 159.728133 154.74501 
L 155.317186 154.201822 
L 150.888009 153.887966 
L 146.982452 153.821481 
L 144.153 154.015089 
L 140.75778 154.51757 
L 138.010828 155.100195 
L 136.295246 155.670854 
L 134.738291 156.392175 
L 133.798205 157.030372 
L 133.011426 157.819487 
L 132.741311 158.314677 
L 132.74711 158.63505 
L 133.012961 159.083973 
L 133.658192 159.570851 
L 134.550943 159.864485 
L 136.291003 160.121087 
L 138.085537 160.159392 
L 142.509968 159.937703 
L 148.494222 159.328727 
L 161.483803 158.027142 
L 165.409998 157.885107 
L 169.342129 157.959022 
L 173.270053 158.239857 
L 175.716755 158.516148 
L 175.716755 158.516148 
" style="fill:none;opacity:0.7;stroke:#000000;stroke-linecap:square;stroke-width:1.2;"/>
   </g>
   <g id="line2d_18">
    <path clip-path="url(#p912f84b4ab)" d="M 175.716818 142.860958 
L 170.887992 141.748235 
L 164.009506 140.439833 
L 159.12497 139.721757 
L 155.218935 139.383421 
L 150.781506 139.242288 
L 145.809382 139.311409 
L 141.929559 139.535253 
L 139.616336 139.88308 
L 136.836457 140.548096 
L 134.713563 141.271146 
L 133.67933 141.802697 
L 132.923989 142.439109 
L 132.707389 142.880422 
L 132.782613 143.089455 
L 133.067306 143.278604 
L 133.50829 143.309379 
L 136.091329 142.747682 
L 140.473395 142.037367 
L 144.379808 141.640087 
L 148.822078 141.414299 
L 154.301564 141.371125 
L 160.286095 141.531489 
L 165.747466 141.89481 
L 172.220586 142.564337 
L 175.716866 142.987927 
L 175.716866 142.987927 
" style="fill:none;opacity:0.7;stroke:#000000;stroke-linecap:square;stroke-width:1.2;"/>
   </g>
   <g id="line2d_19">
    <path clip-path="url(#p912f84b4ab)" d="M 227.322321 220.900292 
L 224.028732 220.051298 
L 219.664726 219.194398 
L 215.26568 218.552952 
L 210.830533 218.136926 
L 205.856587 217.887833 
L 199.866829 217.814313 
L 194.389777 217.97216 
L 189.976491 218.310327 
L 187.156438 218.726618 
L 185.513002 219.150907 
L 184.809397 219.534136 
L 184.413861 220.008121 
L 184.314667 220.418475 
L 184.446099 220.8683 
L 184.836582 221.285644 
L 185.677922 221.68994 
L 187.330323 222.100051 
L 190.170405 222.505386 
L 194.087903 222.817077 
L 199.050432 222.965408 
L 203.999251 222.888333 
L 207.412069 222.636257 
L 211.315822 222.125609 
L 221.51954 220.57073 
L 223.80642 220.571099 
L 225.595082 220.769414 
L 227.321083 221.159082 
L 227.321083 221.159082 
" style="fill:none;opacity:0.7;stroke:#000000;stroke-linecap:square;stroke-width:1.2;"/>
   </g>
   <g id="line2d_20">
    <path clip-path="url(#p912f84b4ab)" d="M 227.321755 204.918805 
L 219.415375 204.168135 
L 211.520759 203.182933 
L 201.176396 201.892241 
L 196.812944 201.594093 
L 193.48682 201.603298 
L 191.178838 201.807202 
L 188.940029 202.218939 
L 187.264462 202.72106 
L 185.754038 203.413651 
L 184.880287 204.000328 
L 184.435673 204.549499 
L 184.336166 205.003883 
L 184.536881 205.193948 
L 185.328489 205.560469 
L 187.03565 205.936832 
L 190.357042 206.426555 
L 195.752694 206.925107 
L 201.664717 207.268156 
L 207.079036 207.361967 
L 212.485941 207.224621 
L 216.317155 206.917946 
L 219.647108 206.393611 
L 227.321373 204.912518 
L 227.321373 204.912518 
" style="fill:none;opacity:0.7;stroke:#000000;stroke-linecap:square;stroke-width:1.2;"/>
   </g>
   <g id="line2d_21">
    <path clip-path="url(#p912f84b4ab)" d="M 227.319714 189.25585 
L 218.658651 187.057407 
L 212.867798 185.810572 
L 208.032605 184.983576 
L 203.673896 184.449559 
L 199.308295 184.152502 
L 195.435156 184.119434 
L 192.611828 184.30084 
L 190.344215 184.64937 
L 188.166529 185.21994 
L 186.554551 185.846187 
L 185.582609 186.409551 
L 184.766545 187.130872 
L 184.371505 187.70805 
L 184.357737 188.126802 
L 184.616308 188.517238 
L 185.186256 188.864894 
L 186.265074 189.14188 
L 188.012176 189.329106 
L 191.394896 189.426978 
L 199.858396 189.387714 
L 217.328905 189.318042 
L 227.321829 189.435435 
L 227.321829 189.435435 
" style="fill:none;opacity:0.7;stroke:#000000;stroke-linecap:square;stroke-width:1.2;"/>
   </g>
   <g id="line2d_22">
    <path clip-path="url(#p912f84b4ab)" d="M 227.321187 173.955849 
L 209.799246 170.345755 
L 205.943407 169.931298 
L 202.568552 169.805584 
L 199.17471 169.892101 
L 195.789119 170.173821 
L 192.438116 170.658278 
L 189.63062 171.251513 
L 186.933074 172.049605 
L 185.431431 172.708964 
L 184.478077 173.401595 
L 184.328703 173.737903 
L 184.364062 174.043679 
L 184.647317 174.405113 
L 185.278444 174.724929 
L 187.470734 175.244305 
L 190.311436 175.67304 
L 194.204732 176.026162 
L 199.132087 176.24559 
L 203.043613 176.224702 
L 206.948435 175.99499 
L 211.351168 175.505867 
L 224.12969 173.907078 
L 226.425339 173.887547 
L 227.322013 173.951033 
L 227.322013 173.951033 
" style="fill:none;opacity:0.7;stroke:#000000;stroke-linecap:square;stroke-width:1.2;"/>
   </g>
   <g id="line2d_23">
    <path clip-path="url(#p912f84b4ab)" d="M 227.324635 158.880622 
L 223.524436 158.29188 
L 219.182129 157.846787 
L 213.312032 157.476791 
L 205.940293 157.232552 
L 198.063651 157.188693 
L 191.209234 157.363384 
L 186.899728 157.682529 
L 185.218469 157.949868 
L 184.436055 158.25843 
L 184.335688 158.505001 
L 184.499595 158.724937 
L 185.04247 158.956022 
L 186.764423 159.242612 
L 190.086041 159.521749 
L 195.454279 159.72173 
L 201.825534 159.743612 
L 207.69401 159.545849 
L 216.560512 158.965757 
L 221.903656 158.684822 
L 224.700541 158.722768 
L 226.897451 158.98601 
L 227.32247 159.072133 
L 227.32247 159.072133 
" style="fill:none;opacity:0.7;stroke:#000000;stroke-linecap:square;stroke-width:1.2;"/>
   </g>
   <g id="line2d_24">
    <path clip-path="url(#p912f84b4ab)" d="M 227.32156 142.90489 
L 224.09072 141.985278 
L 218.323994 140.634705 
L 213.004838 139.592275 
L 208.155599 138.850889 
L 203.784051 138.38836 
L 199.407578 138.151884 
L 195.527197 138.158819 
L 192.700651 138.359122 
L 190.431103 138.717828 
L 188.250822 139.295057 
L 186.623167 139.927232 
L 185.636311 140.487525 
L 184.754337 141.236604 
L 184.325383 141.852759 
L 184.373273 142.156321 
L 184.708468 142.497517 
L 185.09017 142.670835 
L 186.209402 142.861126 
L 188.484758 142.99194 
L 193.411936 142.922004 
L 207.377024 142.738354 
L 217.838491 142.824366 
L 227.321835 142.987708 
L 227.321835 142.987708 
" style="fill:none;opacity:0.7;stroke:#000000;stroke-linecap:square;stroke-width:1.2;"/>
   </g>
   <g id="line2d_25">
    <path clip-path="url(#p912f84b4ab)" d="M 278.927292 220.395748 
L 272.166979 218.891167 
L 266.351634 217.804123 
L 261.000253 217.013097 
L 256.136682 216.51285 
L 252.262031 216.319406 
L 248.407994 216.356488 
L 245.062026 216.611189 
L 242.274659 217.025117 
L 240.098541 217.580854 
L 238.484952 218.210097 
L 237.066258 219.011881 
L 236.258001 219.695922 
L 235.937524 220.276852 
L 236.027709 220.63464 
L 236.401535 220.979342 
L 236.805657 221.135517 
L 237.950778 221.307386 
L 240.22872 221.356686 
L 244.126194 221.186037 
L 254.556574 220.672249 
L 264.497723 220.413633 
L 274.945575 220.360539 
L 278.926509 220.393141 
L 278.926509 220.393141 
" style="fill:none;opacity:0.7;stroke:#000000;stroke-linecap:square;stroke-width:1.2;"/>
   </g>
   <g id="line2d_26">
    <path clip-path="url(#p912f84b4ab)" d="M 278.927615 204.868935 
L 265.888376 200.810213 
L 261.985798 199.949151 
L 258.071997 199.287382 
L 255.149597 199.007524 
L 251.172094 198.869376 
L 248.264506 198.952361 
L 245.88636 199.217134 
L 243.579929 199.693973 
L 241.386724 200.406452 
L 239.736409 201.160176 
L 238.203241 202.084287 
L 236.8751 203.15952 
L 236.178681 203.982655 
L 235.922153 204.611401 
L 235.958294 205.005497 
L 236.243417 205.414424 
L 236.835331 205.751008 
L 237.850598 205.95092 
L 239.604927 205.944394 
L 243.040733 205.653769 
L 248.038233 204.950087 
L 255.576454 203.876725 
L 260.066241 203.469963 
L 264.563679 203.278891 
L 267.484557 203.353629 
L 270.922628 203.687401 
L 275.915724 204.4417 
L 278.926899 204.958402 
L 278.926899 204.958402 
" style="fill:none;opacity:0.7;stroke:#000000;stroke-linecap:square;stroke-width:1.2;"/>
   </g>
   <g id="line2d_27">
    <path clip-path="url(#p912f84b4ab)" d="M 278.925881 189.440364 
L 275.586929 188.983685 
L 269.667042 188.452702 
L 253.73814 187.256732 
L 245.817874 186.862099 
L 241.981999 186.868827 
L 239.754338 187.097735 
L 238.197308 187.500163 
L 237.182425 187.972917 
L 236.382106 188.555986 
L 236.023179 189.066441 
L 235.945992 189.500433 
L 236.104241 189.949917 
L 236.633425 190.537651 
L 237.478839 191.058694 
L 238.576239 191.487078 
L 240.197019 191.84254 
L 242.455341 192.018747 
L 245.830293 192.003338 
L 251.760171 191.73308 
L 262.704914 190.972562 
L 275.602392 189.884981 
L 278.925827 189.425456 
L 278.925827 189.425456 
" style="fill:none;opacity:0.7;stroke:#000000;stroke-linecap:square;stroke-width:1.2;"/>
   </g>
   <g id="line2d_28">
    <path clip-path="url(#p912f84b4ab)" d="M 278.926815 173.952647 
L 274.296577 172.304686 
L 268.838545 170.987128 
L 262.335811 169.613932 
L 256.820999 168.68187 
L 252.834206 168.207083 
L 249.379068 168.027214 
L 246.95873 168.086553 
L 244.617226 168.359109 
L 242.812717 168.762208 
L 241.076191 169.348009 
L 239.434121 170.120492 
L 237.95543 171.062729 
L 237.055691 171.858023 
L 236.354477 172.745354 
L 235.980128 173.551438 
L 235.943113 174.08646 
L 236.121367 174.434156 
L 236.431854 174.675225 
L 237.424268 175.101101 
L 239.113605 175.506612 
L 242.02702 175.862721 
L 246.041836 176.097268 
L 251.123538 176.17212 
L 256.19086 176.020834 
L 260.718286 175.657874 
L 265.229263 175.047622 
L 272.77596 173.97527 
L 275.710928 173.792578 
L 278.062324 173.846208 
L 278.92671 173.952993 
L 278.92671 173.952993 
" style="fill:none;opacity:0.7;stroke:#000000;stroke-linecap:square;stroke-width:1.2;"/>
   </g>
   <g id="line2d_29">
    <path clip-path="url(#p912f84b4ab)" d="M 278.926585 158.476003 
L 275.030486 158.113216 
L 270.641601 157.48776 
L 258.468261 155.564374 
L 254.069439 155.291883 
L 249.656724 155.259559 
L 245.761207 155.442992 
L 242.424252 155.829243 
L 239.675359 156.375443 
L 238.022347 156.908426 
L 236.598272 157.618138 
L 236.100925 158.080598 
L 235.928719 158.525113 
L 236.05569 158.796045 
L 236.637821 159.341553 
L 237.608797 159.864646 
L 239.241424 160.438638 
L 241.477733 160.962134 
L 244.305831 161.359652 
L 247.69454 161.617432 
L 251.604742 161.69789 
L 256.016989 161.561614 
L 259.914054 161.231143 
L 263.782017 160.685102 
L 275.507596 158.774504 
L 278.926441 158.464811 
L 278.926441 158.464811 
" style="fill:none;opacity:0.7;stroke:#000000;stroke-linecap:square;stroke-width:1.2;"/>
   </g>
   <g id="line2d_30">
    <path clip-path="url(#p912f84b4ab)" d="M 278.926852 142.93112 
L 261.188596 140.759519 
L 254.286844 140.247337 
L 249.896486 140.116841 
L 246.025042 140.221996 
L 242.206632 140.558375 
L 239.947659 140.97194 
L 237.820379 141.595053 
L 236.511198 142.240428 
L 235.952318 142.82288 
L 235.969035 143.0461 
L 236.200336 143.21923 
L 237.782657 143.798283 
L 240.012364 144.35222 
L 242.798069 144.797645 
L 246.131669 145.066421 
L 250.018718 145.134275 
L 253.358522 144.998112 
L 257.22853 144.554203 
L 263.61782 143.82724 
L 269.519749 143.375941 
L 275.949456 143.111506 
L 278.926562 143.048735 
L 278.926562 143.048735 
" style="fill:none;opacity:0.7;stroke:#000000;stroke-linecap:square;stroke-width:1.2;"/>
   </g>
   <g id="line2d_31">
    <path clip-path="url(#p912f84b4ab)" d="M 330.531066 220.399626 
L 328.245629 219.764259 
L 317.421578 217.2649 
L 312.522444 216.330695 
L 308.607579 215.777028 
L 305.201991 215.497551 
L 302.306009 215.45764 
L 299.423352 215.631134 
L 296.566284 216.021757 
L 293.77208 216.636379 
L 291.570371 217.342206 
L 289.950015 218.07366 
L 288.569459 218.942392 
L 287.869639 219.643616 
L 287.54624 220.222853 
L 287.586562 220.572528 
L 287.980422 220.978226 
L 288.938301 221.461409 
L 290.612931 222.0507 
L 292.865189 222.564269 
L 296.253098 223.048545 
L 299.644819 223.31339 
L 302.515056 223.309762 
L 305.408307 223.086404 
L 309.335966 222.549744 
L 320.784098 220.832368 
L 325.220358 220.412097 
L 328.616667 220.316596 
L 330.532161 220.387138 
L 330.532161 220.387138 
" style="fill:none;opacity:0.7;stroke:#000000;stroke-linecap:square;stroke-width:1.2;"/>
   </g>
   <g id="line2d_32">
    <path clip-path="url(#p912f84b4ab)" d="M 330.531681 204.852673 
L 325.227005 203.864963 
L 318.892335 202.833604 
L 310.556208 201.703539 
L 305.695746 201.279918 
L 301.831712 201.159883 
L 298.472759 201.25946 
L 295.640047 201.535012 
L 292.88864 202.024579 
L 290.752173 202.648031 
L 289.233427 203.330139 
L 288.301056 203.950746 
L 287.560538 204.707926 
L 287.553712 204.960359 
L 287.726371 205.144023 
L 288.279679 205.345742 
L 290.462912 205.397534 
L 293.305827 205.240413 
L 298.205158 204.955815 
L 306.133032 204.769501 
L 316.074997 204.761935 
L 330.531371 204.980126 
L 330.531371 204.980126 
" style="fill:none;opacity:0.7;stroke:#000000;stroke-linecap:square;stroke-width:1.2;"/>
   </g>
   <g id="line2d_33">
    <path clip-path="url(#p912f84b4ab)" d="M 330.531991 189.250504 
L 320.776628 186.95444 
L 316.922882 186.186094 
L 313.028472 185.645249 
L 308.070406 185.18883 
L 304.165554 185.003428 
L 300.741117 185.067945 
L 296.865465 185.358938 
L 294.550535 185.730241 
L 292.335719 186.313454 
L 290.686315 186.95926 
L 288.469594 188.10746 
L 287.747177 188.811809 
L 287.522022 189.35175 
L 287.612008 189.645167 
L 287.940463 189.952729 
L 288.365443 190.045311 
L 289.486349 189.875683 
L 293.236166 189.153428 
L 297.657117 188.619233 
L 302.083859 188.308523 
L 306.535386 188.222735 
L 312.014062 188.355651 
L 319.535064 188.798584 
L 330.531644 189.616789 
L 330.531644 189.616789 
" style="fill:none;opacity:0.7;stroke:#000000;stroke-linecap:square;stroke-width:1.2;"/>
   </g>
   <g id="line2d_34">
    <path clip-path="url(#p912f84b4ab)" d="M 330.533769 173.949218 
L 330.382514 173.870786 
L 327.541411 173.289046 
L 321.07338 172.080873 
L 318.715918 171.330589 
L 315.873205 170.42866 
L 313.481892 169.909422 
L 310.52866 169.518393 
L 307.51362 169.335017 
L 303.977384 169.346317 
L 300.441045 169.585579 
L 296.940485 170.047921 
L 293.991703 170.644181 
L 291.637786 171.301412 
L 289.90617 171.979256 
L 288.416323 172.80298 
L 287.724626 173.42968 
L 287.537901 173.838748 
L 287.578132 174.171752 
L 287.867231 174.456061 
L 288.787277 174.864223 
L 290.602999 175.31939 
L 293.042351 175.714632 
L 297.636955 176.180463 
L 302.266972 176.43307 
L 307.437151 176.499228 
L 312.593137 176.363584 
L 316.131965 176.080273 
L 319.107228 175.652309 
L 320.92294 175.194921 
L 323.811423 174.475046 
L 326.227207 174.08318 
L 328.631589 173.918081 
L 330.534829 173.961213 
L 330.534829 173.961213 
" style="fill:none;opacity:0.7;stroke:#000000;stroke-linecap:square;stroke-width:1.2;"/>
   </g>
   <g id="line2d_35">
    <path clip-path="url(#p912f84b4ab)" d="M 330.530565 158.477781 
L 324.233047 157.244427 
L 318.917761 156.289467 
L 313.57467 155.556076 
L 308.208116 155.052308 
L 303.341188 154.82372 
L 299.474893 154.852939 
L 296.149626 155.090363 
L 293.366323 155.506995 
L 291.186715 156.050834 
L 289.582818 156.667425 
L 288.573383 157.219532 
L 287.850774 157.843438 
L 287.543321 158.396205 
L 287.618516 158.656777 
L 287.91639 158.854721 
L 288.929656 159.069049 
L 290.687173 159.232962 
L 294.063764 159.260933 
L 300.976912 159.097318 
L 326.234564 158.253772 
L 329.588989 158.39215 
L 330.531841 158.474115 
L 330.531841 158.474115 
" style="fill:none;opacity:0.7;stroke:#000000;stroke-linecap:square;stroke-width:1.2;"/>
   </g>
   <g id="line2d_36">
    <path clip-path="url(#p912f84b4ab)" d="M 330.532213 142.900565 
L 321.261952 139.929659 
L 316.379739 138.620052 
L 311.940148 137.671266 
L 307.464817 136.945544 
L 304.571065 136.681194 
L 302.167372 136.6847 
L 298.710443 136.948196 
L 296.335788 137.310876 
L 294.10063 137.896167 
L 292.41304 138.567862 
L 290.823637 139.429141 
L 288.958701 140.754591 
L 288.24613 141.508437 
L 287.521574 142.651694 
L 287.537076 143.001615 
L 287.765597 143.256947 
L 288.152846 143.448497 
L 289.307343 143.654322 
L 292.22948 143.944565 
L 294.63343 143.999014 
L 300.177709 143.77011 
L 303.099405 143.433818 
L 307.578219 142.636101 
L 313.078002 141.667465 
L 316.506715 141.3014 
L 319.415306 141.235826 
L 322.335707 141.414558 
L 325.2537 141.818913 
L 328.149078 142.428521 
L 330.529469 143.07777 
L 330.529469 143.07777 
" style="fill:none;opacity:0.7;stroke:#000000;stroke-linecap:square;stroke-width:1.2;"/>
   </g>
  </g>
 </g>
 <defs>
  <clipPath id="p912f84b4ab">
   <rect height="329.04" width="329.04" x="15.48" y="15.48"/>
  </clipPath>
 </defs>
</svg>
