<?xml version="1.0" encoding="utf-8" standalone="no"?>
<!DOCTYPE svg PUBLIC "-//W3C//DTD SVG 1.1//EN"
  "http://www.w3.org/Graphics/SVG/1.1/DTD/svg11.dtd">
<!-- Created with matplotlib (http://matplotlib.org/) -->
<svg height="360pt" version="1.1" viewBox="0 0 360 360" width="360pt" xmlns="http://www.w3.org/2000/svg" xmlns:xlink="http://www.w3.org/1999/xlink">
 <defs>
  <style type="text/css">
*{stroke-linecap:butt;stroke-linejoin:round;}
  </style>
 </defs>
 <g id="figure_1">
  <g id="patch_1">
   <path d="M 0 360 
L 360 360 
L 360 0 
L 0 0 
z
" style="fill:#ffffff;"/>
  </g>
  <g id="axes_1">
   <g id="line2d_1">
    <path clip-path="url(#pceb40bb259)" d="M 78.22397 220.503379 
L 76.918588 220.319835 
L 66.249921 219.179419 
L 57.94358 218.468878 
L 51.13556 218.102565 
L 45.560948 218.027927 
L 41.029981 218.194121 
L 37.916625 218.504054 
L 35.907056 218.933292 
L 34.450088 219.446959 
L 32.892059 220.234898 
L 31.319598 221.312815 
L 30.070958 222.363657 
L 30.34611 222.201124 
L 31.923938 221.3742 
L 33.780185 220.658053 
L 35.725309 220.127379 
L 38.069522 219.729547 
L 40.56789 219.563787 
L 43.743602 219.641912 
L 49.895661 220.132026 
L 64.323264 221.284259 
L 74.534873 221.881804 
L 78.156347 221.934477 
L 78.860929 221.873115 
L 78.860929 221.873115 
" style="fill:none;opacity:0.7;stroke:#000000;stroke-linecap:square;stroke-width:1.2;"/>
   </g>
   <g id="line2d_2">
    <path clip-path="url(#pceb40bb259)" d="M 78.227328 201.658786 
L 77.084392 201.494412 
L 66.20162 200.054787 
L 56.806838 198.87303 
L 51.17076 198.378801 
L 46.288777 198.185349 
L 42.612867 198.26011 
L 39.274638 198.542532 
L 37.228332 198.899451 
L 35.612269 199.369577 
L 33.948884 200.085733 
L 32.62651 200.857531 
L 31.366923 201.808913 
L 30.280525 202.921228 
L 29.917687 203.561936 
L 29.984592 203.71445 
L 30.334525 203.705521 
L 37.053346 202.244288 
L 40.447158 201.885104 
L 43.974933 201.726706 
L 48.508976 201.781546 
L 56.283798 202.163991 
L 74.301545 203.089255 
L 78.033454 203.094569 
L 78.858321 203.009289 
L 78.858321 203.009289 
" style="fill:none;opacity:0.7;stroke:#000000;stroke-linecap:square;stroke-width:1.2;"/>
   </g>
   <g id="line2d_3">
    <path clip-path="url(#pceb40bb259)" d="M 77.981296 182.843487 
L 75.487564 182.491002 
L 69.746381 181.585189 
L 52.192686 178.545735 
L 48.288861 178.18598 
L 45.06347 178.106793 
L 41.903663 178.282415 
L 39.180478 178.673104 
L 37.046875 179.215032 
L 35.317927 179.87752 
L 33.543675 180.823472 
L 32.183235 181.782285 
L 31.002597 182.856956 
L 30.07583 184.032283 
L 29.795647 184.731792 
L 29.896868 184.981551 
L 30.254444 185.059896 
L 31.444232 184.913008 
L 37.517441 183.971984 
L 41.86168 183.4959 
L 46.337363 183.249033 
L 51.182671 183.247088 
L 57.686011 183.480671 
L 77.097327 184.289444 
L 78.969098 184.172972 
L 78.969098 184.172972 
" style="fill:none;opacity:0.7;stroke:#000000;stroke-linecap:square;stroke-width:1.2;"/>
   </g>
   <g id="line2d_4">
    <path clip-path="url(#pceb40bb259)" d="M 78.155684 163.89222 
L 75.677695 163.456292 
L 71.626927 162.658357 
L 64.917207 161.048947 
L 56.866069 159.129849 
L 52.37685 158.292835 
L 49.244232 157.905565 
L 46.330767 157.763207 
L 43.706234 157.864794 
L 41.427002 158.152886 
L 39.220798 158.642671 
L 37.324779 159.278301 
L 35.796798 159.969679 
L 33.974364 161.045398 
L 32.3096 162.329232 
L 31.030239 163.604718 
L 30.15249 164.75964 
L 29.709041 165.636845 
L 29.653013 166.028989 
L 29.813066 166.271727 
L 30.07737 166.353298 
L 31.156629 166.323886 
L 35.081325 165.790395 
L 42.082858 164.89231 
L 46.291898 164.583066 
L 50.971444 164.477585 
L 56.504902 164.57747 
L 67.080871 165.04525 
L 76.948609 165.421334 
L 79.035515 165.326628 
L 79.035515 165.326628 
" style="fill:none;opacity:0.7;stroke:#000000;stroke-linecap:square;stroke-width:1.2;"/>
   </g>
   <g id="line2d_5">
    <path clip-path="url(#pceb40bb259)" d="M 78.7727 144.740734 
L 76.720647 144.253182 
L 73.172921 143.312241 
L 66.273499 141.175745 
L 59.803724 139.245192 
L 55.741989 138.224451 
L 52.062193 137.52102 
L 49.082175 137.182405 
L 46.72198 137.114495 
L 44.261157 137.271569 
L 42.185065 137.607491 
L 40.297781 138.099163 
L 38.221948 138.881638 
L 36.490949 139.757156 
L 34.542999 141.021563 
L 32.892818 142.370883 
L 31.429506 143.859102 
L 30.21103 145.459984 
L 29.569831 146.691763 
L 29.465171 147.189251 
L 29.574419 147.540199 
L 29.797813 147.703322 
L 30.592269 147.847816 
L 32.084452 147.801542 
L 35.608714 147.393654 
L 45.461617 146.105302 
L 49.845377 145.791814 
L 54.175634 145.679599 
L 60.337457 145.771055 
L 69.198824 146.168195 
L 76.979179 146.511516 
L 79.18275 146.429985 
L 79.18275 146.429985 
" style="fill:none;opacity:0.7;stroke:#000000;stroke-linecap:square;stroke-width:1.2;"/>
   </g>
   <g id="line2d_6">
    <path clip-path="url(#pceb40bb259)" d="M 140.681534 220.580535 
L 137.528439 220.268578 
L 121.814299 218.941513 
L 115.253221 218.63791 
L 110.006126 218.61022 
L 105.815287 218.788009 
L 101.424965 219.198274 
L 98.983224 219.597784 
L 97.062205 220.125409 
L 95.438474 220.780531 
L 93.840983 221.656376 
L 92.766972 222.458478 
L 92.786224 222.469829 
L 93.225757 222.383736 
L 95.894776 221.830361 
L 99.634287 221.278565 
L 103.150183 220.975724 
L 107.361279 220.866048 
L 114.01087 220.991001 
L 131.700725 221.656368 
L 140.975567 221.895514 
L 141.379561 221.883746 
L 141.379561 221.883746 
" style="fill:none;opacity:0.7;stroke:#000000;stroke-linecap:square;stroke-width:1.2;"/>
   </g>
   <g id="line2d_7">
    <path clip-path="url(#pceb40bb259)" d="M 140.719802 201.734468 
L 137.898087 201.434993 
L 130.454547 200.558956 
L 120.904507 199.437382 
L 115.016785 198.978402 
L 110.591407 198.847512 
L 107.226496 198.926838 
L 103.306219 199.240225 
L 100.01775 199.721675 
L 97.8119 200.287416 
L 95.971359 200.994091 
L 94.504442 201.766396 
L 93.368869 202.575062 
L 92.687306 203.336925 
L 92.647939 203.673087 
L 92.920277 203.83495 
L 93.60402 203.887076 
L 95.580949 203.759795 
L 107.819372 202.720694 
L 113.069229 202.601105 
L 120.9112 202.679969 
L 141.352028 203.073546 
L 141.352028 203.073546 
" style="fill:none;opacity:0.7;stroke:#000000;stroke-linecap:square;stroke-width:1.2;"/>
   </g>
   <g id="line2d_8">
    <path clip-path="url(#pceb40bb259)" d="M 140.65967 182.881404 
L 137.084877 182.479084 
L 132.116877 181.770814 
L 117.897648 179.582296 
L 113.537312 179.18662 
L 109.742299 179.073383 
L 106.766141 179.18509 
L 103.408171 179.526671 
L 100.564665 180.032561 
L 98.613994 180.56926 
L 96.730629 181.293262 
L 95.247693 182.048578 
L 93.975254 182.886403 
L 93.015678 183.742713 
L 92.542777 184.441948 
L 92.524367 184.830073 
L 92.800365 185.073133 
L 93.423371 185.212921 
L 94.982598 185.251401 
L 98.736775 185.038773 
L 108.80099 184.354725 
L 115.583514 184.177782 
L 125.421103 184.177382 
L 141.458043 184.246816 
L 141.458043 184.246816 
" style="fill:none;opacity:0.7;stroke:#000000;stroke-linecap:square;stroke-width:1.2;"/>
   </g>
   <g id="line2d_9">
    <path clip-path="url(#pceb40bb259)" d="M 140.680418 164.028796 
L 131.50219 162.509042 
L 118.01242 159.739655 
L 114.277476 159.251259 
L 110.970494 159.041723 
L 107.920882 159.091203 
L 105.033894 159.363559 
L 102.481023 159.79148 
L 99.997599 160.437579 
L 98.029349 161.174126 
L 96.119218 162.138297 
L 94.393977 163.305155 
L 93.271561 164.332819 
L 92.655177 165.150493 
L 92.444638 165.780445 
L 92.560994 166.140523 
L 92.955681 166.403879 
L 93.826225 166.600296 
L 95.721206 166.698018 
L 99.05052 166.585665 
L 117.585954 165.528374 
L 126.885381 165.446973 
L 141.701245 165.356705 
L 141.701245 165.356705 
" style="fill:none;opacity:0.7;stroke:#000000;stroke-linecap:square;stroke-width:1.2;"/>
   </g>
   <g id="line2d_10">
    <path clip-path="url(#pceb40bb259)" d="M 141.256653 144.969082 
L 133.355287 143.187076 
L 121.090047 139.943082 
L 116.714713 139.089499 
L 113.349453 138.658995 
L 110.616671 138.512685 
L 108.331585 138.561948 
L 105.51682 138.856044 
L 102.751619 139.424285 
L 100.571492 140.116715 
L 98.429945 141.056771 
L 96.447867 142.204228 
L 94.764023 143.454739 
L 93.487603 144.677527 
L 92.624736 145.845147 
L 92.346874 146.54067 
L 92.357708 147.107171 
L 92.534311 147.424776 
L 92.964143 147.755756 
L 93.876131 148.076852 
L 95.350953 148.301082 
L 97.635444 148.390578 
L 100.656153 148.282047 
L 106.380584 147.803013 
L 115.031201 147.112717 
L 121.662463 146.829319 
L 130.609889 146.71451 
L 140.542933 146.561592 
L 141.81707 146.453678 
L 141.81707 146.453678 
" style="fill:none;opacity:0.7;stroke:#000000;stroke-linecap:square;stroke-width:1.2;"/>
   </g>
   <g id="line2d_11">
    <path clip-path="url(#pceb40bb259)" d="M 203.022457 220.683572 
L 199.685118 220.443775 
L 181.865891 219.386934 
L 175.333588 219.243619 
L 170.001862 219.351173 
L 165.417205 219.678325 
L 161.928699 220.099142 
L 159.561217 220.623853 
L 157.668596 221.29014 
L 156.062812 222.096837 
L 155.611846 222.486274 
L 155.794625 222.541049 
L 157.133738 222.489783 
L 171.673216 221.589237 
L 180.310635 221.577718 
L 196.980002 221.813765 
L 203.972584 221.917955 
L 203.972584 221.917955 
" style="fill:none;opacity:0.7;stroke:#000000;stroke-linecap:square;stroke-width:1.2;"/>
   </g>
   <g id="line2d_12">
    <path clip-path="url(#pceb40bb259)" d="M 203.370055 201.781598 
L 199.739763 201.451553 
L 191.940318 200.614904 
L 182.565119 199.659979 
L 176.852032 199.318044 
L 172.404618 199.27359 
L 168.35396 199.466587 
L 164.186725 199.897163 
L 161.590315 200.373443 
L 159.623114 200.943795 
L 158.191037 201.518232 
L 156.771373 202.284132 
L 155.770852 203.084286 
L 155.510881 203.534606 
L 155.552161 203.716153 
L 155.886653 203.908837 
L 156.7156 204.020762 
L 158.831254 204.021571 
L 163.867649 203.742195 
L 171.465008 203.33684 
L 179.504148 203.165539 
L 194.407148 203.126301 
L 203.862296 203.113411 
L 203.862296 203.113411 
" style="fill:none;opacity:0.7;stroke:#000000;stroke-linecap:square;stroke-width:1.2;"/>
   </g>
   <g id="line2d_13">
    <path clip-path="url(#pceb40bb259)" d="M 203.403284 182.895551 
L 177.229313 179.737625 
L 173.149445 179.618557 
L 169.663736 179.740837 
L 165.788329 180.124282 
L 162.859235 180.639903 
L 160.864083 181.184611 
L 158.900694 181.939224 
L 157.400511 182.720428 
L 156.252953 183.526425 
L 155.541398 184.298595 
L 155.409915 184.696372 
L 155.533439 184.971362 
L 156.01524 185.206123 
L 156.848359 185.348386 
L 159.03072 185.446433 
L 162.955944 185.366092 
L 184.675998 184.544632 
L 204.005982 184.215592 
L 204.005982 184.215592 
" style="fill:none;opacity:0.7;stroke:#000000;stroke-linecap:square;stroke-width:1.2;"/>
   </g>
   <g id="line2d_14">
    <path clip-path="url(#pceb40bb259)" d="M 203.673002 164.000777 
L 193.349536 162.415863 
L 184.145645 160.76516 
L 179.51375 160.156314 
L 175.635239 159.859883 
L 172.266315 159.825466 
L 169.060958 160.019493 
L 165.667319 160.461987 
L 163.034454 161.026356 
L 160.966815 161.676242 
L 159.029654 162.510816 
L 157.59299 163.323714 
L 156.409616 164.195581 
L 155.655479 164.969781 
L 155.310271 165.637522 
L 155.33845 165.991146 
L 155.657917 166.324338 
L 156.301993 166.574693 
L 157.403194 166.777112 
L 159.771972 166.958831 
L 163.136338 166.989436 
L 168.67161 166.779221 
L 191.075767 165.730999 
L 204.227032 165.314996 
L 204.227032 165.314996 
" style="fill:none;opacity:0.7;stroke:#000000;stroke-linecap:square;stroke-width:1.2;"/>
   </g>
   <g id="line2d_15">
    <path clip-path="url(#pceb40bb259)" d="M 204.079853 145.040274 
L 196.667775 143.607108 
L 184.110735 140.728483 
L 180.004206 140.046417 
L 176.430508 139.658122 
L 173.005409 139.534326 
L 170.152787 139.65633 
L 167.132297 140.021789 
L 164.608864 140.549017 
L 162.426491 141.225984 
L 160.121689 142.231114 
L 158.256707 143.329091 
L 157.082985 144.208664 
L 155.97607 145.285265 
L 155.355755 146.206907 
L 155.196037 146.780267 
L 155.304855 147.290367 
L 155.729644 147.727278 
L 156.389867 148.049146 
L 157.950188 148.437353 
L 159.876851 148.675659 
L 162.867736 148.810171 
L 166.472605 148.741991 
L 172.531337 148.3528 
L 188.649993 147.203657 
L 201.688458 146.599682 
L 204.524192 146.48121 
L 204.524192 146.48121 
" style="fill:none;opacity:0.7;stroke:#000000;stroke-linecap:square;stroke-width:1.2;"/>
   </g>
   <g id="line2d_16">
    <path clip-path="url(#pceb40bb259)" d="M 265.394919 220.756528 
L 263.695615 220.659488 
L 248.057405 220.189207 
L 237.846774 220.052723 
L 231.463101 220.175719 
L 226.612859 220.482994 
L 223.385874 220.887817 
L 221.342399 221.357199 
L 219.307875 222.052079 
L 218.556055 222.503927 
L 218.675088 222.574311 
L 219.580394 222.628303 
L 223.150395 222.559505 
L 234.033904 222.220163 
L 258.205088 221.994783 
L 266.638542 222.011639 
L 266.638542 222.011639 
" style="fill:none;opacity:0.7;stroke:#000000;stroke-linecap:square;stroke-width:1.2;"/>
   </g>
   <g id="line2d_17">
    <path clip-path="url(#pceb40bb259)" d="M 266.170734 201.831432 
L 263.163316 201.590407 
L 251.951808 200.606304 
L 244.102693 200.037774 
L 238.213877 199.840531 
L 233.687562 199.901456 
L 229.463731 200.168274 
L 225.852022 200.556215 
L 223.467675 201.011301 
L 221.767888 201.507553 
L 220.278891 202.107352 
L 218.920476 202.908413 
L 218.434321 203.460168 
L 218.42702 203.692941 
L 218.682955 203.913118 
L 219.449913 204.093132 
L 221.551414 204.212798 
L 225.722757 204.186161 
L 266.671889 203.151345 
L 266.671889 203.151345 
" style="fill:none;opacity:0.7;stroke:#000000;stroke-linecap:square;stroke-width:1.2;"/>
   </g>
   <g id="line2d_18">
    <path clip-path="url(#pceb40bb259)" d="M 266.483774 182.896958 
L 261.665374 182.407742 
L 252.465805 181.225721 
L 245.829684 180.488239 
L 240.691103 180.127694 
L 236.542461 180.038861 
L 232.489619 180.183452 
L 228.469226 180.556425 
L 225.490297 181.036506 
L 223.019773 181.684623 
L 220.980193 182.481236 
L 219.612771 183.232051 
L 218.758078 183.902935 
L 218.337406 184.499684 
L 218.329306 184.849602 
L 218.609761 185.147434 
L 219.308868 185.391762 
L 220.869347 185.597013 
L 223.975455 185.728651 
L 228.933158 185.696304 
L 239.516906 185.311111 
L 266.752387 184.195341 
L 266.752387 184.195341 
" style="fill:none;opacity:0.7;stroke:#000000;stroke-linecap:square;stroke-width:1.2;"/>
   </g>
   <g id="line2d_19">
    <path clip-path="url(#pceb40bb259)" d="M 266.692945 163.998535 
L 255.264502 162.286524 
L 248.318083 161.194028 
L 243.254938 160.609041 
L 238.943306 160.331635 
L 235.509022 160.310941 
L 232.208839 160.491361 
L 228.690305 160.898613 
L 226.047716 161.391988 
L 223.937327 161.968975 
L 222.018712 162.693478 
L 220.490907 163.463556 
L 219.386081 164.197566 
L 218.578258 164.957114 
L 218.248574 165.506901 
L 218.22327 165.983388 
L 218.504167 166.361987 
L 219.142189 166.68084 
L 220.251715 166.95009 
L 222.499743 167.221593 
L 226.197087 167.400074 
L 230.931137 167.363292 
L 238.279794 167.034314 
L 250.661714 166.22319 
L 264.637852 165.358849 
L 267.050934 165.332445 
L 267.050934 165.332445 
" style="fill:none;opacity:0.7;stroke:#000000;stroke-linecap:square;stroke-width:1.2;"/>
   </g>
   <g id="line2d_20">
    <path clip-path="url(#pceb40bb259)" d="M 267.021483 145.069715 
L 258.756537 143.53676 
L 249.403595 141.604668 
L 244.34636 140.807726 
L 240.326997 140.384055 
L 236.748214 140.224521 
L 233.549559 140.303579 
L 230.223716 140.629325 
L 227.392967 141.132499 
L 225.127791 141.74756 
L 223.060787 142.536388 
L 221.067155 143.577912 
L 219.493764 144.712941 
L 218.581863 145.671817 
L 218.167058 146.459777 
L 218.119771 146.989566 
L 218.336128 147.505718 
L 218.890512 147.976289 
L 219.666154 148.321159 
L 221.324904 148.727306 
L 224.03366 149.071477 
L 227.188941 149.250881 
L 231.31683 149.247007 
L 236.967057 148.973078 
L 244.855126 148.327218 
L 262.975406 146.72751 
L 267.193779 146.577841 
L 267.4512 146.583842 
L 267.4512 146.583842 
" style="fill:none;opacity:0.7;stroke:#000000;stroke-linecap:square;stroke-width:1.2;"/>
   </g>
   <g id="line2d_21">
    <path clip-path="url(#pceb40bb259)" d="M 328.199892 220.811901 
L 326.472191 220.741877 
L 315.886066 220.698599 
L 299.554774 220.829185 
L 291.476977 221.096086 
L 287.235857 221.437389 
L 284.267562 221.928217 
L 281.550596 222.547447 
L 281.639776 222.621743 
L 282.165167 222.718286 
L 284.795904 222.846262 
L 290.626477 222.877992 
L 307.791444 222.647265 
L 329.691052 222.09036 
L 329.691052 222.09036 
" style="fill:none;opacity:0.7;stroke:#000000;stroke-linecap:square;stroke-width:1.2;"/>
   </g>
   <g id="line2d_22">
    <path clip-path="url(#pceb40bb259)" d="M 328.953496 201.883055 
L 327.503777 201.776937 
L 304.461381 200.602735 
L 298.196087 200.573538 
L 293.119868 200.784242 
L 288.081512 201.229965 
L 285.522327 201.678607 
L 283.37521 202.288322 
L 281.960952 202.919908 
L 281.404237 203.417136 
L 281.3553 203.737718 
L 281.556174 203.966153 
L 281.91235 204.123315 
L 283.020304 204.324893 
L 285.832533 204.496715 
L 291.14702 204.571612 
L 302.051826 204.361027 
L 314.856124 203.968618 
L 326.727563 203.372223 
L 329.767729 203.193916 
L 329.767729 203.193916 
" style="fill:none;opacity:0.7;stroke:#000000;stroke-linecap:square;stroke-width:1.2;"/>
   </g>
   <g id="line2d_23">
    <path clip-path="url(#pceb40bb259)" d="M 329.456946 182.969515 
L 325.865427 182.622792 
L 306.991985 180.822481 
L 301.765249 180.66006 
L 297.339683 180.733391 
L 292.847178 181.03037 
L 288.895303 181.465685 
L 286.297221 181.964005 
L 284.510617 182.481985 
L 282.979747 183.101704 
L 281.96669 183.692628 
L 281.375601 184.265506 
L 281.208278 184.736501 
L 281.353315 185.111309 
L 281.869778 185.450791 
L 282.887005 185.717921 
L 285.147471 185.960317 
L 289.980475 186.174133 
L 295.110183 186.16711 
L 303.206068 185.911122 
L 312.381209 185.403338 
L 329.866264 184.286538 
L 329.866264 184.286538 
" style="fill:none;opacity:0.7;stroke:#000000;stroke-linecap:square;stroke-width:1.2;"/>
   </g>
   <g id="line2d_24">
    <path clip-path="url(#pceb40bb259)" d="M 329.769773 164.036514 
L 313.703344 161.760765 
L 308.206891 161.166596 
L 303.204408 160.856148 
L 299.31572 160.816621 
L 295.503198 160.98655 
L 291.251618 161.419342 
L 288.55582 161.87503 
L 285.950007 162.554625 
L 283.960691 163.314632 
L 282.578003 164.051354 
L 281.645022 164.779224 
L 281.205372 165.38846 
L 281.107942 165.847507 
L 281.202415 166.20444 
L 281.614634 166.64586 
L 282.407324 167.016467 
L 283.63262 167.308356 
L 286.035125 167.611543 
L 289.976544 167.876484 
L 294.301252 167.950161 
L 299.587991 167.81651 
L 306.048141 167.425809 
L 314.317866 166.673725 
L 326.765612 165.521133 
L 329.750799 165.46031 
L 330.135937 165.478598 
L 330.135937 165.478598 
" style="fill:none;opacity:0.7;stroke:#000000;stroke-linecap:square;stroke-width:1.2;"/>
   </g>
   <g id="line2d_25">
    <path clip-path="url(#pceb40bb259)" d="M 330.02702 145.117409 
L 318.64804 142.991737 
L 312.538295 141.904612 
L 307.476348 141.222646 
L 302.878893 140.840093 
L 298.791598 140.754982 
L 295.47868 140.906139 
L 292.610808 141.208663 
L 289.745151 141.703819 
L 287.457094 142.304875 
L 285.402443 143.067919 
L 283.405151 144.101222 
L 282.223375 144.946625 
L 281.418082 145.78767 
L 281.119317 146.326347 
L 281.022912 146.965793 
L 281.167656 147.450921 
L 281.642114 148.015869 
L 282.418392 148.48368 
L 283.587499 148.88317 
L 285.352251 149.237622 
L 288.256995 149.586546 
L 292.238881 149.823211 
L 296.623006 149.830601 
L 301.637419 149.603669 
L 307.083858 149.137788 
L 314.43789 148.256148 
L 325.73983 146.887258 
L 328.354046 146.703042 
L 330.534829 146.722413 
L 330.534829 146.722413 
" style="fill:none;opacity:0.7;stroke:#000000;stroke-linecap:square;stroke-width:1.2;"/>
   </g>
  </g>
 </g>
 <defs>
  <clipPath id="pceb40bb259">
   <rect height="329.04" width="329.04" x="15.48" y="15.48"/>
  </clipPath>
 </defs>
</svg>
