<?xml version="1.0" encoding="utf-8" standalone="no"?>
<!DOCTYPE svg PUBLIC "-//W3C//DTD SVG 1.1//EN"
  "http://www.w3.org/Graphics/SVG/1.1/DTD/svg11.dtd">
<!-- Created with matplotlib (http://matplotlib.org/) -->
<svg height="360pt" version="1.1" viewBox="0 0 360 360" width="360pt" xmlns="http://www.w3.org/2000/svg" xmlns:xlink="http://www.w3.org/1999/xlink">
 <defs>
  <style type="text/css">
*{stroke-linecap:butt;stroke-linejoin:round;}
  </style>
 </defs>
 <g id="figure_1">
  <g id="patch_1">
   <path d="M 0 360 
L 360 360 
L 360 0 
L 0 0 
z
" style="fill:#ffffff;"/>
  </g>
  <g id="axes_1">
   <g id="line2d_1">
    <path clip-path="url(#p35e6ad2dc8)" d="M 78.287073 220.303359 
L 75.793998 219.942028 
L 67.192517 218.968502 
L 59.915823 218.351852 
L 53.503076 218.031567 
L 48.255678 217.979761 
L 43.814893 218.151753 
L 40.402391 218.486534 
L 37.419875 218.979352 
L 35.173874 219.545225 
L 33.177435 220.274392 
L 31.724635 220.987773 
L 30.393153 221.872483 
L 29.858673 222.478394 
L 29.910988 222.666105 
L 30.22121 222.683917 
L 31.121871 222.402041 
L 32.98643 221.489496 
L 37.437145 219.162858 
L 39.041393 218.605359 
L 40.784271 218.28276 
L 42.872059 218.196265 
L 46.303717 218.376394 
L 55.657819 219.223927 
L 69.883712 220.704131 
L 78.919188 221.682581 
L 78.919188 221.682581 
" style="fill:none;opacity:0.7;stroke:#000000;stroke-linecap:square;stroke-width:1.2;"/>
   </g>
   <g id="line2d_2">
    <path clip-path="url(#p35e6ad2dc8)" d="M 78.258772 201.422839 
L 75.825003 201.052569 
L 60.067575 198.917559 
L 54.23537 198.395669 
L 48.973444 198.153865 
L 44.910851 198.174673 
L 40.96472 198.430425 
L 37.567576 198.868578 
L 35.574147 199.302913 
L 33.67018 199.958346 
L 32.219282 200.67886 
L 30.986963 201.507822 
L 30.082944 202.358233 
L 29.659009 202.997757 
L 29.571364 203.484983 
L 29.734836 203.754314 
L 30.177117 203.904444 
L 30.878459 203.873257 
L 31.960434 203.625422 
L 34.06864 202.89189 
L 38.875386 201.094893 
L 40.424169 200.724682 
L 42.780753 200.417285 
L 45.801127 200.271239 
L 50.704851 200.267067 
L 56.432678 200.469808 
L 63.320174 200.947232 
L 70.357396 201.65308 
L 78.860115 202.689105 
L 78.860115 202.689105 
" style="fill:none;opacity:0.7;stroke:#000000;stroke-linecap:square;stroke-width:1.2;"/>
   </g>
   <g id="line2d_3">
    <path clip-path="url(#p35e6ad2dc8)" d="M 78.13901 182.45545 
L 75.666908 182.065736 
L 67.999553 180.779377 
L 59.391528 179.389977 
L 53.844007 178.715488 
L 49.065047 178.352748 
L 45.445484 178.266533 
L 41.956502 178.380851 
L 38.822335 178.678864 
L 36.790993 179.061662 
L 35.07433 179.595312 
L 33.334042 180.39665 
L 32.168892 181.115254 
L 31.010743 182.030984 
L 30.116468 182.982995 
L 29.594813 183.852827 
L 29.492298 184.477403 
L 29.709932 184.872344 
L 30.140311 185.068958 
L 30.78413 185.12734 
L 32.158581 184.972064 
L 34.487585 184.407887 
L 41.726147 182.411584 
L 44.558091 181.972793 
L 48.45496 181.595999 
L 52.686959 181.401095 
L 57.575955 181.417061 
L 62.862266 181.687592 
L 68.512012 182.223721 
L 74.270643 183.00041 
L 78.867605 183.727667 
L 78.867605 183.727667 
" style="fill:none;opacity:0.7;stroke:#000000;stroke-linecap:square;stroke-width:1.2;"/>
   </g>
   <g id="line2d_4">
    <path clip-path="url(#p35e6ad2dc8)" d="M 78.292548 163.415504 
L 77.139658 163.197503 
L 71.246683 162.089742 
L 56.866596 159.179469 
L 52.226262 158.479439 
L 48.088139 158.064961 
L 45.091422 157.947963 
L 42.010919 158.051595 
L 39.829846 158.32611 
L 38.03658 158.743372 
L 36.105033 159.439684 
L 34.634189 160.163828 
L 32.803077 161.334602 
L 31.276726 162.61252 
L 30.253153 163.746345 
L 29.635112 164.75857 
L 29.465171 165.399215 
L 29.593912 165.924708 
L 29.931919 166.20975 
L 30.437983 166.371898 
L 31.647502 166.433456 
L 33.397593 166.241982 
L 35.799803 165.722177 
L 39.741819 164.565327 
L 43.624831 163.535282 
L 46.762541 162.91281 
L 50.272984 162.42585 
L 54.237184 162.124583 
L 58.338093 162.070023 
L 62.923601 162.281492 
L 67.713608 162.764706 
L 72.88649 163.547085 
L 78.944709 164.721201 
L 78.944709 164.721201 
" style="fill:none;opacity:0.7;stroke:#000000;stroke-linecap:square;stroke-width:1.2;"/>
   </g>
   <g id="line2d_5">
    <path clip-path="url(#p35e6ad2dc8)" d="M 78.73538 144.291213 
L 77.789064 144.069493 
L 72.407455 142.806042 
L 55.395183 138.43606 
L 51.311879 137.668772 
L 47.818782 137.237419 
L 45.423997 137.13191 
L 42.86145 137.270945 
L 40.848334 137.625617 
L 38.859153 138.234376 
L 37.263343 138.923802 
L 35.544303 139.875854 
L 33.53059 141.292985 
L 31.955633 142.685146 
L 30.724156 144.052439 
L 29.805651 145.47998 
L 29.513616 146.391189 
L 29.597672 147.115717 
L 29.908716 147.529725 
L 30.358919 147.804375 
L 31.298193 148.053752 
L 32.727809 148.125184 
L 34.666188 147.940827 
L 36.87105 147.475031 
L 39.675658 146.64013 
L 45.879403 144.743049 
L 49.684991 143.866214 
L 53.101432 143.323324 
L 56.591426 143.016535 
L 60.102604 142.949436 
L 63.884226 143.120151 
L 67.596095 143.501139 
L 71.947778 144.181779 
L 76.252093 145.071833 
L 79.08049 145.697847 
L 79.08049 145.697847 
" style="fill:none;opacity:0.7;stroke:#000000;stroke-linecap:square;stroke-width:1.2;"/>
   </g>
   <g id="line2d_6">
    <path clip-path="url(#p35e6ad2dc8)" d="M 140.939936 220.300997 
L 138.205856 220.0294 
L 128.044567 219.265184 
L 120.332257 218.871626 
L 113.883774 218.753592 
L 108.498872 218.87423 
L 103.947219 219.203342 
L 99.87941 219.71053 
L 97.165604 220.266101 
L 95.169463 220.888991 
L 93.687889 221.551469 
L 92.903048 222.095681 
L 92.736156 222.434671 
L 92.842902 222.539034 
L 93.250433 222.596105 
L 94.368926 222.448916 
L 96.866911 221.795337 
L 101.437026 220.532384 
L 103.604868 220.196674 
L 106.485179 220.009402 
L 111.271246 219.958953 
L 118.155 220.08971 
L 126.183177 220.451789 
L 135.263244 221.090863 
L 141.71779 221.693922 
L 141.71779 221.693922 
" style="fill:none;opacity:0.7;stroke:#000000;stroke-linecap:square;stroke-width:1.2;"/>
   </g>
   <g id="line2d_7">
    <path clip-path="url(#p35e6ad2dc8)" d="M 140.835658 201.465788 
L 138.096258 201.152301 
L 118.027791 199.139188 
L 112.774658 198.913771 
L 108.226 198.944628 
L 104.414529 199.183077 
L 100.467384 199.644945 
L 97.920981 200.169816 
L 95.958907 200.80933 
L 94.307377 201.591725 
L 93.343595 202.236176 
L 92.67425 202.955854 
L 92.575612 203.344329 
L 92.711586 203.582669 
L 93.161224 203.778282 
L 93.957854 203.858776 
L 95.603794 203.771259 
L 98.438054 203.351246 
L 105.690688 202.116223 
L 109.685331 201.763661 
L 114.978498 201.532137 
L 120.699894 201.505847 
L 127.029931 201.691101 
L 133.915141 202.099393 
L 141.333221 202.768412 
L 141.545028 202.791397 
L 141.545028 202.791397 
" style="fill:none;opacity:0.7;stroke:#000000;stroke-linecap:square;stroke-width:1.2;"/>
   </g>
   <g id="line2d_8">
    <path clip-path="url(#p35e6ad2dc8)" d="M 140.505236 182.574272 
L 136.840129 182.153275 
L 129.50109 181.199316 
L 118.80362 179.778246 
L 113.578275 179.313593 
L 109.275395 179.156777 
L 105.427 179.251663 
L 101.796281 179.55806 
L 99.656389 179.906104 
L 97.873149 180.376003 
L 96.129797 181.057981 
L 94.928962 181.697066 
L 93.789756 182.493701 
L 92.988109 183.272074 
L 92.580227 183.920185 
L 92.518156 184.417895 
L 92.641508 184.664368 
L 93.065144 184.943255 
L 93.739002 185.112066 
L 95.230203 185.198805 
L 97.363396 185.078796 
L 100.494529 184.653702 
L 108.797575 183.363979 
L 113.694884 182.887335 
L 118.720323 182.633377 
L 123.48448 182.596716 
L 129.551036 182.790407 
L 135.693139 183.221996 
L 141.473303 183.849616 
L 141.473303 183.849616 
" style="fill:none;opacity:0.7;stroke:#000000;stroke-linecap:square;stroke-width:1.2;"/>
   </g>
   <g id="line2d_9">
    <path clip-path="url(#p35e6ad2dc8)" d="M 140.664664 163.606076 
L 137.749462 163.220228 
L 132.999646 162.523106 
L 113.329503 159.348456 
L 109.534024 159.07071 
L 106.131052 159.041301 
L 103.484435 159.202925 
L 101.256285 159.537266 
L 99.451883 160.008245 
L 97.471128 160.787514 
L 95.759587 161.727755 
L 94.446144 162.671511 
L 93.437989 163.609995 
L 92.758559 164.498803 
L 92.487976 165.170181 
L 92.511746 165.647472 
L 92.822949 166.076318 
L 93.325129 166.360255 
L 94.205456 166.607058 
L 95.626163 166.769292 
L 97.780108 166.758491 
L 100.407792 166.485943 
L 104.207779 165.818883 
L 111.248869 164.589636 
L 115.701932 164.02849 
L 120.254936 163.687621 
L 124.966937 163.580661 
L 130.069795 163.710878 
L 135.734227 164.113717 
L 141.604217 164.78076 
L 141.604217 164.78076 
" style="fill:none;opacity:0.7;stroke:#000000;stroke-linecap:square;stroke-width:1.2;"/>
   </g>
   <g id="line2d_10">
    <path clip-path="url(#p35e6ad2dc8)" d="M 141.36291 144.490168 
L 138.764499 144.040328 
L 134.382916 143.196117 
L 125.694197 141.203425 
L 118.515283 139.636186 
L 113.600855 138.788218 
L 110.240612 138.414464 
L 107.563275 138.310119 
L 105.056982 138.436617 
L 103.060019 138.750951 
L 101.010863 139.320635 
L 99.400849 139.963391 
L 97.732512 140.823419 
L 95.732703 142.148753 
L 94.179487 143.477569 
L 93.133684 144.653982 
L 92.487002 145.787455 
L 92.361946 146.552506 
L 92.501876 147.065282 
L 92.916552 147.578822 
L 93.68503 148.044306 
L 94.792308 148.397281 
L 96.21524 148.614205 
L 98.281858 148.664312 
L 100.567932 148.46902 
L 103.226069 148.021069 
L 115.429143 145.633211 
L 119.239655 145.177969 
L 123.412468 144.905396 
L 127.74977 144.849703 
L 132.611506 145.020329 
L 137.786478 145.425753 
L 141.752327 145.812505 
L 141.752327 145.812505 
" style="fill:none;opacity:0.7;stroke:#000000;stroke-linecap:square;stroke-width:1.2;"/>
   </g>
   <g id="line2d_11">
    <path clip-path="url(#p35e6ad2dc8)" d="M 203.097357 220.410843 
L 201.222908 220.294243 
L 191.552277 220.009888 
L 177.415746 219.791432 
L 169.425607 219.877486 
L 164.214414 220.124073 
L 161.021913 220.475999 
L 158.58672 221.002001 
L 156.895948 221.570188 
L 155.930154 222.108097 
L 155.792674 222.401252 
L 155.975043 222.509634 
L 156.737831 222.564092 
L 158.920464 222.379454 
L 163.785059 221.642024 
L 167.306259 221.229467 
L 171.950475 220.943394 
L 178.569583 220.780329 
L 186.348251 220.821396 
L 195.285894 221.10424 
L 203.385739 221.581612 
L 204.558385 221.685749 
L 204.558385 221.685749 
" style="fill:none;opacity:0.7;stroke:#000000;stroke-linecap:square;stroke-width:1.2;"/>
   </g>
   <g id="line2d_12">
    <path clip-path="url(#p35e6ad2dc8)" d="M 203.280551 201.553409 
L 200.09772 201.297664 
L 174.67919 199.619413 
L 170.282248 199.631431 
L 165.806792 199.869386 
L 162.614873 200.235568 
L 160.545907 200.663895 
L 158.603038 201.282784 
L 156.943367 202.07056 
L 155.996895 202.7824 
L 155.714148 203.230022 
L 155.755765 203.529223 
L 156.112716 203.779889 
L 156.807239 203.93961 
L 158.313824 204.021242 
L 160.78647 203.918096 
L 164.700082 203.505715 
L 170.803162 202.862299 
L 176.86321 202.455038 
L 183.091836 202.259529 
L 189.956441 202.264337 
L 197.963171 202.497438 
L 204.324201 202.839327 
L 204.324201 202.839327 
" style="fill:none;opacity:0.7;stroke:#000000;stroke-linecap:square;stroke-width:1.2;"/>
   </g>
   <g id="line2d_13">
    <path clip-path="url(#p35e6ad2dc8)" d="M 203.197257 182.616762 
L 201.434436 182.445561 
L 191.686095 181.540945 
L 176.388119 179.967893 
L 171.873668 179.784954 
L 168.049214 179.85251 
L 164.750285 180.109892 
L 162.328313 180.506235 
L 160.382383 181.031228 
L 158.772667 181.65621 
L 157.392033 182.388796 
L 156.454479 183.067086 
L 155.845195 183.71699 
L 155.606689 184.300618 
L 155.673324 184.621156 
L 156.048013 184.971114 
L 156.686761 185.213463 
L 158.064892 185.432827 
L 160.339495 185.503647 
L 163.405894 185.330387 
L 170.028303 184.603524 
L 176.619722 183.987704 
L 182.750931 183.640426 
L 189.545806 183.51175 
L 197.025926 183.617057 
L 204.114321 183.897965 
L 204.114321 183.897965 
" style="fill:none;opacity:0.7;stroke:#000000;stroke-linecap:square;stroke-width:1.2;"/>
   </g>
   <g id="line2d_14">
    <path clip-path="url(#p35e6ad2dc8)" d="M 203.377114 163.67363 
L 201.691153 163.48212 
L 193.845519 162.601977 
L 185.418923 161.36791 
L 177.696218 160.311657 
L 173.238161 159.913987 
L 169.434535 159.802895 
L 166.304496 159.924238 
L 163.61744 160.283281 
L 161.535141 160.820024 
L 159.678634 161.551347 
L 157.878171 162.559483 
L 156.492275 163.660708 
L 155.794876 164.488114 
L 155.503625 165.140116 
L 155.501432 165.61472 
L 155.659766 165.953097 
L 156.133573 166.369186 
L 157.068247 166.761476 
L 158.531045 167.06126 
L 160.302806 167.208148 
L 162.964695 167.168511 
L 166.190668 166.855761 
L 181.490859 165.038133 
L 186.596232 164.772286 
L 192.791054 164.683661 
L 200.898136 164.83449 
L 204.093842 164.912246 
L 204.093842 164.912246 
" style="fill:none;opacity:0.7;stroke:#000000;stroke-linecap:square;stroke-width:1.2;"/>
   </g>
   <g id="line2d_15">
    <path clip-path="url(#p35e6ad2dc8)" d="M 203.9724 144.666088 
L 202.492584 144.452634 
L 196.335553 143.557741 
L 189.700804 142.303991 
L 178.30797 140.086127 
L 173.888924 139.465485 
L 170.645917 139.226262 
L 168.01337 139.244245 
L 165.894638 139.459778 
L 163.856902 139.895883 
L 162.117483 140.479972 
L 160.519573 141.209347 
L 158.648837 142.334949 
L 157.282234 143.402723 
L 156.264963 144.433414 
L 155.565604 145.472676 
L 155.323705 146.336587 
L 155.43565 146.999557 
L 155.881729 147.644941 
L 156.704341 148.231986 
L 157.675156 148.638904 
L 159.14735 148.995912 
L 160.898827 149.188524 
L 163.176038 149.190458 
L 165.972024 148.932976 
L 170.180809 148.278989 
L 179.412363 146.780371 
L 183.864744 146.298608 
L 188.908086 145.998856 
L 194.805081 145.906352 
L 204.36407 145.993743 
L 204.36407 145.993743 
" style="fill:none;opacity:0.7;stroke:#000000;stroke-linecap:square;stroke-width:1.2;"/>
   </g>
   <g id="line2d_16">
    <path clip-path="url(#p35e6ad2dc8)" d="M 265.503397 220.504595 
L 263.456991 220.439996 
L 253.959534 220.531832 
L 223.864474 221.116935 
L 221.340417 221.534238 
L 219.23172 222.06517 
L 218.900915 222.346203 
L 218.996477 222.458059 
L 219.396249 222.557404 
L 220.955095 222.612554 
L 224.027213 222.470442 
L 236.012718 221.636655 
L 244.601884 221.336008 
L 253.559527 221.255403 
L 261.485443 221.38409 
L 267.174916 221.682434 
L 267.364841 221.701073 
L 267.364841 221.701073 
" style="fill:none;opacity:0.7;stroke:#000000;stroke-linecap:square;stroke-width:1.2;"/>
   </g>
   <g id="line2d_17">
    <path clip-path="url(#p35e6ad2dc8)" d="M 265.832445 201.623945 
L 263.868845 201.504964 
L 233.541973 200.470221 
L 228.223509 200.572043 
L 225.19027 200.819765 
L 223.199302 201.165034 
L 221.368584 201.669999 
L 219.790718 202.337216 
L 218.970316 202.947935 
L 218.77292 203.347545 
L 218.859935 203.646656 
L 219.287082 203.93936 
L 220.07433 204.145743 
L 221.588177 204.285355 
L 224.035986 204.280753 
L 227.808951 204.038988 
L 240.800747 203.091521 
L 248.249791 202.776352 
L 256.18997 202.658913 
L 264.000867 202.756224 
L 267.11521 202.881051 
L 267.11521 202.881051 
" style="fill:none;opacity:0.7;stroke:#000000;stroke-linecap:square;stroke-width:1.2;"/>
   </g>
   <g id="line2d_18">
    <path clip-path="url(#p35e6ad2dc8)" d="M 266.127067 182.720758 
L 264.211308 182.55972 
L 252.050532 181.673188 
L 238.440949 180.605239 
L 233.771138 180.461596 
L 229.656651 180.532757 
L 226.485477 180.79093 
L 224.097007 181.218355 
L 222.338525 181.725011 
L 220.572606 182.474244 
L 219.519835 183.130922 
L 218.890467 183.745696 
L 218.655678 184.231782 
L 218.697676 184.690813 
L 218.871802 184.947165 
L 219.419247 185.31259 
L 220.251464 185.581663 
L 221.756577 185.806553 
L 224.047993 185.899553 
L 227.526968 185.768737 
L 234.505659 185.173091 
L 244.184353 184.388233 
L 251.250374 184.049896 
L 258.935263 183.907211 
L 266.83043 183.96807 
L 266.83043 183.96807 
" style="fill:none;opacity:0.7;stroke:#000000;stroke-linecap:square;stroke-width:1.2;"/>
   </g>
   <g id="line2d_19">
    <path clip-path="url(#p35e6ad2dc8)" d="M 266.273705 163.756803 
L 264.378955 163.567168 
L 255.79683 162.791487 
L 246.337543 161.644658 
L 238.322744 160.728799 
L 233.676447 160.431513 
L 230.172068 160.431523 
L 227.472931 160.646782 
L 225.31346 161.033691 
L 223.150797 161.681922 
L 221.444662 162.433073 
L 220.03833 163.287687 
L 219.1828 164.009573 
L 218.624003 164.752208 
L 218.456782 165.346902 
L 218.545999 165.829377 
L 218.773332 166.190882 
L 219.359311 166.672022 
L 220.386325 167.1226 
L 221.833629 167.458949 
L 223.652438 167.654945 
L 226.320602 167.685946 
L 229.649783 167.472997 
L 236.016379 166.777904 
L 244.956234 165.816479 
L 251.157934 165.387243 
L 258.384207 165.127972 
L 266.891787 165.025551 
L 266.891787 165.025551 
" style="fill:none;opacity:0.7;stroke:#000000;stroke-linecap:square;stroke-width:1.2;"/>
   </g>
   <g id="line2d_20">
    <path clip-path="url(#p35e6ad2dc8)" d="M 266.815917 144.771518 
L 265.078896 144.547232 
L 257.220852 143.571628 
L 250.45905 142.465559 
L 238.015759 140.37755 
L 234.054915 139.970028 
L 231.284984 139.887646 
L 228.748809 140.044358 
L 226.735561 140.393524 
L 225.084309 140.866847 
L 223.404307 141.549618 
L 221.605372 142.547878 
L 220.149831 143.631984 
L 219.2598 144.512861 
L 218.584292 145.503065 
L 218.345006 146.382348 
L 218.461072 147.082279 
L 218.753932 147.603522 
L 219.389591 148.230411 
L 220.35504 148.797772 
L 221.760204 149.27985 
L 223.49115 149.588555 
L 225.737786 149.719244 
L 228.617499 149.608452 
L 232.365499 149.202326 
L 239.645555 148.111955 
L 246.259101 147.201287 
L 251.285954 146.731839 
L 257.303799 146.409677 
L 267.274738 146.143282 
L 267.274738 146.143282 
" style="fill:none;opacity:0.7;stroke:#000000;stroke-linecap:square;stroke-width:1.2;"/>
   </g>
   <g id="line2d_21">
    <path clip-path="url(#p35e6ad2dc8)" d="M 328.758109 220.59481 
L 326.936795 220.558741 
L 319.951064 220.753746 
L 297.104135 221.458809 
L 286.677846 221.733807 
L 282.104373 222.279758 
L 282.12156 222.454896 
L 282.366625 222.597331 
L 282.985232 222.733295 
L 284.720307 222.850433 
L 288.036574 222.836277 
L 296.125383 222.476707 
L 313.470895 221.699566 
L 322.6443 221.549992 
L 327.316999 221.598344 
L 330.400331 221.761132 
L 330.400331 221.761132 
" style="fill:none;opacity:0.7;stroke:#000000;stroke-linecap:square;stroke-width:1.2;"/>
   </g>
   <g id="line2d_22">
    <path clip-path="url(#p35e6ad2dc8)" d="M 328.815954 201.71714 
L 326.823243 201.629877 
L 296.902672 201.389516 
L 288.596646 201.419118 
L 286.160819 201.659141 
L 284.114144 202.054276 
L 282.6026 202.557789 
L 282.013319 202.973384 
L 281.845329 203.303684 
L 281.905126 203.652702 
L 282.138068 203.921862 
L 282.797075 204.249792 
L 283.865294 204.467035 
L 285.874442 204.584746 
L 290.118055 204.53285 
L 297.353777 204.173713 
L 317.317811 203.036754 
L 325.404366 202.850895 
L 330.205563 202.909555 
L 330.205563 202.909555 
" style="fill:none;opacity:0.7;stroke:#000000;stroke-linecap:square;stroke-width:1.2;"/>
   </g>
   <g id="line2d_23">
    <path clip-path="url(#p35e6ad2dc8)" d="M 329.22698 182.781762 
L 327.277965 182.642692 
L 306.737306 181.597843 
L 298.256504 181.276635 
L 292.267487 181.279819 
L 288.855254 181.48289 
L 286.499504 181.854848 
L 284.349013 182.445976 
L 282.965487 183.036634 
L 282.169004 183.57773 
L 281.763687 184.136463 
L 281.712594 184.569605 
L 281.852154 184.949374 
L 282.09756 185.245775 
L 282.78996 185.685282 
L 283.747922 185.987936 
L 285.281538 186.204782 
L 287.695033 186.308889 
L 291.884956 186.248559 
L 297.353282 185.936071 
L 306.525846 185.148908 
L 315.548526 184.4627 
L 323.440392 184.094386 
L 329.677489 184.017724 
L 329.970557 184.022142 
L 329.970557 184.022142 
" style="fill:none;opacity:0.7;stroke:#000000;stroke-linecap:square;stroke-width:1.2;"/>
   </g>
   <g id="line2d_24">
    <path clip-path="url(#p35e6ad2dc8)" d="M 329.524918 163.86043 
L 327.563709 163.668381 
L 315.365179 162.675836 
L 300.918775 161.398843 
L 296.017136 161.187031 
L 291.934441 161.226841 
L 289.166306 161.496884 
L 286.995489 161.948068 
L 285.126627 162.560156 
L 283.793009 163.1659 
L 282.568488 163.93767 
L 281.866364 164.648471 
L 281.603398 165.268024 
L 281.644311 165.814837 
L 281.908188 166.319722 
L 282.58991 166.949718 
L 283.403424 167.379648 
L 284.747381 167.782308 
L 286.403185 168.030457 
L 288.897207 168.16924 
L 292.331669 168.112789 
L 297.092069 167.772738 
L 303.948319 167.02288 
L 313.919185 165.936265 
L 320.585453 165.457471 
L 326.794987 165.209254 
L 330.156835 165.156475 
L 330.156835 165.156475 
" style="fill:none;opacity:0.7;stroke:#000000;stroke-linecap:square;stroke-width:1.2;"/>
   </g>
   <g id="line2d_25">
    <path clip-path="url(#p35e6ad2dc8)" d="M 329.921262 144.876178 
L 328.053755 144.646295 
L 319.539926 143.70674 
L 310.838476 142.468456 
L 300.260626 140.97319 
L 296.461512 140.633038 
L 293.137202 140.576862 
L 290.933851 140.751619 
L 288.895187 141.131949 
L 287.162186 141.66103 
L 285.642969 142.310038 
L 284.343205 143.034707 
L 282.922521 144.092999 
L 282.13867 144.926575 
L 281.634659 145.859812 
L 281.546074 146.481161 
L 281.716266 147.230266 
L 282.203175 147.992271 
L 282.976171 148.692835 
L 284.039573 149.292278 
L 285.467906 149.762121 
L 287.332194 150.074179 
L 289.709114 150.212603 
L 292.78033 150.140648 
L 296.698219 149.805524 
L 301.939355 149.122244 
L 315.472656 147.218651 
L 321.227221 146.725878 
L 327.244228 146.420362 
L 330.534829 146.305977 
L 330.534829 146.305977 
" style="fill:none;opacity:0.7;stroke:#000000;stroke-linecap:square;stroke-width:1.2;"/>
   </g>
  </g>
 </g>
 <defs>
  <clipPath id="p35e6ad2dc8">
   <rect height="329.04" width="329.04" x="15.48" y="15.48"/>
  </clipPath>
 </defs>
</svg>
