<?xml version="1.0" encoding="utf-8" standalone="no"?>
<!DOCTYPE svg PUBLIC "-//W3C//DTD SVG 1.1//EN"
  "http://www.w3.org/Graphics/SVG/1.1/DTD/svg11.dtd">
<!-- Created with matplotlib (http://matplotlib.org/) -->
<svg height="360pt" version="1.1" viewBox="0 0 360 360" width="360pt" xmlns="http://www.w3.org/2000/svg" xmlns:xlink="http://www.w3.org/1999/xlink">
 <defs>
  <style type="text/css">
*{stroke-linecap:butt;stroke-linejoin:round;}
  </style>
 </defs>
 <g id="figure_1">
  <g id="patch_1">
   <path d="M 0 360 
L 360 360 
L 360 0 
L 0 0 
z
" style="fill:#ffffff;"/>
  </g>
  <g id="axes_1">
   <g id="line2d_1">
    <path clip-path="url(#p0487935610)" d="M 78.260303 220.58243 
L 76.655016 220.357866 
L 69.605682 219.708082 
L 57.650816 218.852896 
L 39.284755 217.862892 
L 37.550819 217.924285 
L 35.63006 218.233336 
L 33.76973 218.81209 
L 32.127612 219.571133 
L 31.026394 220.297118 
L 31.084108 220.422465 
L 31.657935 220.538227 
L 33.282921 220.73911 
L 34.860799 220.704368 
L 41.77463 220.138005 
L 44.955396 220.321806 
L 61.45295 221.473739 
L 71.976896 221.967988 
L 77.669478 222.05399 
L 79.444697 221.918457 
L 79.444697 221.918457 
" style="fill:none;opacity:0.7;stroke:#000000;stroke-linecap:square;stroke-width:1.2;"/>
   </g>
   <g id="line2d_2">
    <path clip-path="url(#p0487935610)" d="M 78.385549 201.79529 
L 77.003309 201.593859 
L 43.903293 198.02396 
L 40.564971 197.937338 
L 38.336358 198.080147 
L 36.444131 198.390786 
L 34.510244 198.914739 
L 32.396878 199.752571 
L 31.145517 200.50428 
L 30.844793 200.920735 
L 30.863746 201.269308 
L 31.068087 201.583025 
L 31.42257 201.883276 
L 32.33949 202.314664 
L 33.677493 202.587962 
L 35.302204 202.669849 
L 38.19873 202.530613 
L 43.802497 202.203852 
L 48.117198 202.246083 
L 56.220448 202.620019 
L 69.743614 203.220939 
L 75.768188 203.32248 
L 78.692584 203.215133 
L 79.462134 203.108111 
L 79.462134 203.108111 
" style="fill:none;opacity:0.7;stroke:#000000;stroke-linecap:square;stroke-width:1.2;"/>
   </g>
   <g id="line2d_3">
    <path clip-path="url(#p0487935610)" d="M 78.588863 183.002239 
L 77.378779 182.793664 
L 67.97929 181.411215 
L 59.686981 179.901069 
L 51.417853 178.439581 
L 47.494099 177.963639 
L 44.293641 177.811015 
L 41.397617 177.928604 
L 39.095009 178.224543 
L 36.605552 178.774489 
L 34.361919 179.503551 
L 32.645345 180.254317 
L 31.49186 180.942656 
L 30.731317 181.675564 
L 30.475871 182.210522 
L 30.443589 182.69199 
L 30.551866 183.06871 
L 30.922619 183.555918 
L 31.3616 183.849525 
L 32.265637 184.162128 
L 33.56005 184.346461 
L 35.447412 184.396359 
L 38.864553 184.218369 
L 45.560172 183.799518 
L 50.407861 183.795191 
L 57.559705 184.057359 
L 70.776706 184.538794 
L 76.059348 184.553642 
L 79.127287 184.362258 
L 79.548353 184.29113 
L 79.548353 184.29113 
" style="fill:none;opacity:0.7;stroke:#000000;stroke-linecap:square;stroke-width:1.2;"/>
   </g>
   <g id="line2d_4">
    <path clip-path="url(#p0487935610)" d="M 78.944887 164.087615 
L 77.958921 163.876096 
L 71.573237 162.598678 
L 65.863609 161.186463 
L 55.068595 158.459684 
L 51.547847 157.803019 
L 48.286365 157.437148 
L 45.98947 157.373374 
L 43.348148 157.532856 
L 40.725846 157.943905 
L 38.262905 158.562638 
L 36.379796 159.202591 
L 34.166083 160.180075 
L 32.341717 161.252938 
L 31.081946 162.281764 
L 30.326361 163.224867 
L 30.015173 163.918638 
L 29.944254 164.53015 
L 30.121202 165.049798 
L 30.410237 165.34418 
L 31.168665 165.685226 
L 32.401571 165.898313 
L 34.285539 165.98315 
L 37.289984 165.888683 
L 49.312384 165.212756 
L 54.244571 165.290353 
L 75.511502 165.889272 
L 78.833718 165.692522 
L 79.669897 165.547592 
L 79.669897 165.547592 
" style="fill:none;opacity:0.7;stroke:#000000;stroke-linecap:square;stroke-width:1.2;"/>
   </g>
   <g id="line2d_5">
    <path clip-path="url(#p0487935610)" d="M 79.451018 144.972037 
L 78.727984 144.770928 
L 74.215239 143.556772 
L 68.59557 141.726341 
L 60.317332 139.016537 
L 56.221542 137.910814 
L 53.243489 137.295604 
L 50.235974 136.905824 
L 47.729593 136.810639 
L 45.414997 136.938324 
L 43.339401 137.236342 
L 40.846517 137.824445 
L 38.7795 138.513703 
L 36.436089 139.552829 
L 34.358112 140.760161 
L 32.550691 142.107662 
L 31.372617 143.208429 
L 30.222562 144.594699 
L 29.599047 145.717232 
L 29.465171 146.425444 
L 29.566556 146.750902 
L 29.877766 147.048486 
L 30.58668 147.312706 
L 32.173095 147.523306 
L 34.680664 147.584589 
L 38.515489 147.416654 
L 49.180722 146.750552 
L 54.330726 146.766268 
L 63.739409 147.104938 
L 71.857486 147.30188 
L 76.797184 147.199265 
L 79.23538 146.944254 
L 79.79827 146.816169 
L 79.79827 146.816169 
" style="fill:none;opacity:0.7;stroke:#000000;stroke-linecap:square;stroke-width:1.2;"/>
   </g>
   <g id="line2d_6">
    <path clip-path="url(#p0487935610)" d="M 140.790161 220.645488 
L 139.32021 220.482237 
L 128.52358 219.630475 
L 119.022064 219.07187 
L 111.852159 218.865569 
L 102.699757 218.861633 
L 100.020333 218.959086 
L 98.183109 219.228988 
L 96.350964 219.724336 
L 93.849251 220.706758 
L 93.217105 221.069347 
L 93.226806 221.085146 
L 93.475774 221.229036 
L 94.250332 221.460728 
L 95.452528 221.626141 
L 97.018018 221.636894 
L 101.032489 221.323549 
L 104.921547 221.169303 
L 110.375787 221.239279 
L 141.085653 221.938087 
L 141.906637 221.921949 
L 141.906637 221.921949 
" style="fill:none;opacity:0.7;stroke:#000000;stroke-linecap:square;stroke-width:1.2;"/>
   </g>
   <g id="line2d_7">
    <path clip-path="url(#p0487935610)" d="M 140.990342 201.849901 
L 139.770529 201.705375 
L 128.118351 200.478952 
L 117.655058 199.395158 
L 111.814681 199.011793 
L 107.295129 198.921658 
L 102.706697 199.077876 
L 100.063521 199.347184 
L 97.976896 199.75675 
L 96.123729 200.314385 
L 94.294009 201.094822 
L 93.388476 201.664274 
L 92.964766 202.164682 
L 92.950329 202.539286 
L 93.10857 202.760278 
L 93.626877 203.055866 
L 94.675113 203.316549 
L 96.691582 203.488439 
L 99.246593 203.457333 
L 110.224692 203.029587 
L 119.807822 203.097885 
L 136.803125 203.208992 
L 141.930751 203.112293 
L 141.930751 203.112293 
" style="fill:none;opacity:0.7;stroke:#000000;stroke-linecap:square;stroke-width:1.2;"/>
   </g>
   <g id="line2d_8">
    <path clip-path="url(#p0487935610)" d="M 141.089668 183.111426 
L 140.031458 182.969377 
L 133.98843 182.169138 
L 127.11229 180.987491 
L 118.53572 179.551828 
L 114.235973 179.03002 
L 110.554391 178.791412 
L 107.486532 178.80669 
L 104.713224 179.018242 
L 101.777224 179.45095 
L 99.26718 180.041449 
L 97.348071 180.691874 
L 95.439979 181.578215 
L 94.036866 182.4672 
L 93.180862 183.220553 
L 92.718162 183.92565 
L 92.702826 184.269897 
L 92.884353 184.52212 
L 93.325767 184.737294 
L 94.008697 184.887952 
L 96.070568 185.048088 
L 99.27642 185.044087 
L 114.545365 184.712701 
L 133.446445 184.676493 
L 140.392287 184.446727 
L 142.022229 184.354236 
L 142.022229 184.354236 
" style="fill:none;opacity:0.7;stroke:#000000;stroke-linecap:square;stroke-width:1.2;"/>
   </g>
   <g id="line2d_9">
    <path clip-path="url(#p0487935610)" d="M 141.408977 164.243821 
L 139.252036 163.888593 
L 134.898214 163.052441 
L 129.14906 161.682524 
L 120.946388 159.750509 
L 116.723403 158.988205 
L 113.380637 158.601395 
L 110.687316 158.48932 
L 108.466163 158.563951 
L 105.586011 158.900783 
L 102.868019 159.45762 
L 100.469556 160.166137 
L 98.285141 161.05252 
L 96.449594 162.037749 
L 95.076842 162.963958 
L 93.747601 164.079155 
L 92.777733 165.155478 
L 92.494593 165.694929 
L 92.492279 165.932974 
L 92.72088 166.18302 
L 93.396202 166.385614 
L 95.305039 166.566952 
L 99.082331 166.646059 
L 104.872819 166.500585 
L 112.924534 166.333306 
L 134.123058 166.132033 
L 140.306347 165.754699 
L 142.205436 165.598617 
L 142.205436 165.598617 
" style="fill:none;opacity:0.7;stroke:#000000;stroke-linecap:square;stroke-width:1.2;"/>
   </g>
   <g id="line2d_10">
    <path clip-path="url(#p0487935610)" d="M 141.897647 145.199558 
L 140.065351 144.777649 
L 136.232664 143.753246 
L 128.422773 141.31514 
L 123.37535 139.872326 
L 119.554189 138.976578 
L 116.047122 138.377006 
L 113.109018 138.099714 
L 110.983071 138.06158 
L 108.080529 138.264199 
L 105.48844 138.700969 
L 103.012956 139.347891 
L 100.916428 140.102003 
L 99.226911 140.883847 
L 97.296495 142.017283 
L 95.54342 143.326706 
L 94.106306 144.665157 
L 92.801107 146.229294 
L 92.410569 146.964687 
L 92.376515 147.238888 
L 92.536674 147.538909 
L 92.814512 147.704123 
L 93.559897 147.909384 
L 95.213361 148.12036 
L 98.418364 148.299243 
L 102.216988 148.302696 
L 136.593642 147.359839 
L 141.479373 146.892255 
L 142.373733 146.795502 
L 142.373733 146.795502 
" style="fill:none;opacity:0.7;stroke:#000000;stroke-linecap:square;stroke-width:1.2;"/>
   </g>
   <g id="line2d_11">
    <path clip-path="url(#p0487935610)" d="M 203.355909 220.741353 
L 200.55925 220.501245 
L 187.124124 219.582798 
L 179.377246 219.276239 
L 173.196998 219.257718 
L 168.22681 219.447451 
L 161.949036 219.916111 
L 159.740055 220.312338 
L 157.805921 220.916891 
L 155.584484 221.796984 
L 155.609599 221.821853 
L 156.076462 221.954169 
L 157.54561 222.110544 
L 159.670638 222.127617 
L 169.692888 221.889585 
L 194.501718 221.986146 
L 204.37587 221.918858 
L 204.37587 221.918858 
" style="fill:none;opacity:0.7;stroke:#000000;stroke-linecap:square;stroke-width:1.2;"/>
   </g>
   <g id="line2d_12">
    <path clip-path="url(#p0487935610)" d="M 203.770616 201.934094 
L 201.122801 201.66985 
L 192.874997 200.761544 
L 184.027847 199.862267 
L 177.933194 199.481161 
L 173.334528 199.396911 
L 169.201862 199.529883 
L 164.806034 199.910224 
L 162.255323 200.28337 
L 160.160198 200.812672 
L 158.321892 201.529832 
L 156.522732 202.513789 
L 155.441107 203.35314 
L 155.399001 203.581376 
L 155.599446 203.687993 
L 156.567102 203.818732 
L 159.547753 203.918029 
L 164.293206 203.841955 
L 172.033026 203.709207 
L 192.99365 203.560085 
L 204.405643 203.18168 
L 204.405643 203.18168 
" style="fill:none;opacity:0.7;stroke:#000000;stroke-linecap:square;stroke-width:1.2;"/>
   </g>
   <g id="line2d_13">
    <path clip-path="url(#p0487935610)" d="M 203.962285 183.125014 
L 201.020356 182.771821 
L 196.102544 182.02366 
L 184.640868 180.19747 
L 179.852568 179.674588 
L 175.813557 179.436134 
L 172.084213 179.451373 
L 169.180977 179.662742 
L 165.913426 180.107592 
L 162.877299 180.746871 
L 160.920228 181.355623 
L 158.843 182.253534 
L 157.229791 183.190556 
L 155.89919 184.217546 
L 155.387853 184.852455 
L 155.407366 185.049982 
L 155.61107 185.177405 
L 156.439361 185.314684 
L 159.34985 185.448589 
L 164.839415 185.477444 
L 182.744676 185.320884 
L 190.87587 185.150827 
L 198.851778 184.75397 
L 204.532473 184.401305 
L 204.532473 184.401305 
" style="fill:none;opacity:0.7;stroke:#000000;stroke-linecap:square;stroke-width:1.2;"/>
   </g>
   <g id="line2d_14">
    <path clip-path="url(#p0487935610)" d="M 204.185164 164.272597 
L 195.510706 162.600465 
L 187.177209 160.772671 
L 182.461706 159.96801 
L 178.376412 159.503512 
L 174.869175 159.350386 
L 171.961177 159.451922 
L 169.209255 159.762267 
L 165.992139 160.369628 
L 163.369674 161.080989 
L 161.282306 161.847868 
L 159.15369 162.88468 
L 157.207451 164.14774 
L 155.828158 165.373387 
L 155.374132 166.049114 
L 155.384256 166.316935 
L 155.578421 166.490286 
L 156.287016 166.687481 
L 158.165584 166.883344 
L 162.484739 167.070282 
L 167.595918 167.044927 
L 192.709203 166.484079 
L 199.375349 165.976904 
L 204.764101 165.574949 
L 204.764101 165.574949 
" style="fill:none;opacity:0.7;stroke:#000000;stroke-linecap:square;stroke-width:1.2;"/>
   </g>
   <g id="line2d_15">
    <path clip-path="url(#p0487935610)" d="M 204.579755 145.296813 
L 197.965019 143.625812 
L 189.553502 141.248965 
L 184.833876 140.173931 
L 181.530479 139.59878 
L 178.146512 139.211218 
L 175.11203 139.089764 
L 172.264272 139.217561 
L 169.736537 139.543429 
L 167.04984 140.099278 
L 164.209414 140.938374 
L 162.021168 141.81567 
L 159.900427 142.925032 
L 157.932174 144.264132 
L 156.693152 145.336904 
L 155.747933 146.401034 
L 155.359715 147.112907 
L 155.349633 147.49625 
L 155.537083 147.754647 
L 156.136937 148.042109 
L 157.390782 148.315205 
L 160.066551 148.625691 
L 163.897452 148.829024 
L 168.619986 148.805935 
L 187.092488 148.241373 
L 193.185234 147.878241 
L 199.854729 147.251452 
L 204.710556 146.815696 
L 205.007632 146.823613 
L 205.007632 146.823613 
" style="fill:none;opacity:0.7;stroke:#000000;stroke-linecap:square;stroke-width:1.2;"/>
   </g>
   <g id="line2d_16">
    <path clip-path="url(#p0487935610)" d="M 265.965125 220.853407 
L 264.609333 220.737981 
L 251.380834 219.960988 
L 242.495042 219.648965 
L 235.948996 219.642927 
L 230.844303 219.859437 
L 226.462039 220.277448 
L 223.160361 220.802649 
L 221.489943 221.283989 
L 218.263912 222.397175 
L 218.66742 222.376046 
L 225.820349 222.475749 
L 233.662566 222.507598 
L 246.388484 222.59153 
L 256.96878 222.400988 
L 267.003781 222.069569 
L 267.003781 222.069569 
" style="fill:none;opacity:0.7;stroke:#000000;stroke-linecap:square;stroke-width:1.2;"/>
   </g>
   <g id="line2d_17">
    <path clip-path="url(#p0487935610)" d="M 266.482479 202.045245 
L 263.217272 201.70913 
L 246.535065 200.044416 
L 240.656389 199.779777 
L 236.242214 199.774312 
L 232.209655 199.965882 
L 228.149051 200.381394 
L 224.553805 200.934934 
L 222.54239 201.447855 
L 220.765958 202.115693 
L 219.116971 202.95976 
L 218.196081 203.660684 
L 218.221896 203.813221 
L 218.450819 203.907325 
L 219.907451 204.071674 
L 224.685649 204.279291 
L 230.670713 204.247748 
L 239.815761 204.267327 
L 249.404486 204.244299 
L 256.652891 204.016041 
L 263.660218 203.583863 
L 266.993567 203.313881 
L 266.993567 203.313881 
" style="fill:none;opacity:0.7;stroke:#000000;stroke-linecap:square;stroke-width:1.2;"/>
   </g>
   <g id="line2d_18">
    <path clip-path="url(#p0487935610)" d="M 266.711497 183.168441 
L 248.499154 180.53692 
L 243.119796 180.058604 
L 238.659411 179.895766 
L 234.759538 179.988906 
L 231.417914 180.286717 
L 227.473194 180.883192 
L 224.685808 181.495948 
L 222.573437 182.158702 
L 220.548821 183.041414 
L 218.917965 184.042601 
L 218.210286 184.743491 
L 218.162877 185.063795 
L 218.317842 185.218085 
L 218.822193 185.3905 
L 220.484027 185.601964 
L 224.226343 185.81 
L 229.007247 185.855085 
L 251.832196 185.585995 
L 258.533838 185.160238 
L 267.185337 184.440217 
L 267.185337 184.440217 
" style="fill:none;opacity:0.7;stroke:#000000;stroke-linecap:square;stroke-width:1.2;"/>
   </g>
   <g id="line2d_19">
    <path clip-path="url(#p0487935610)" d="M 266.975186 164.282919 
L 259.52422 162.86324 
L 252.469271 161.426848 
L 247.197097 160.599588 
L 242.946932 160.153941 
L 239.258041 159.97677 
L 235.782549 160.042222 
L 232.835092 160.309153 
L 229.722309 160.795287 
L 226.560669 161.493273 
L 223.973145 162.287352 
L 221.821916 163.187567 
L 220.290897 164.02396 
L 218.811198 165.111527 
L 218.186633 165.851456 
L 218.101529 166.224219 
L 218.286468 166.510365 
L 218.752819 166.733066 
L 219.710999 166.948739 
L 222.263609 167.243668 
L 226.405371 167.48055 
L 231.014638 167.514458 
L 245.66876 167.281378 
L 252.325079 166.944245 
L 258.766988 166.376383 
L 266.939343 165.603166 
L 267.443258 165.627376 
L 267.443258 165.627376 
" style="fill:none;opacity:0.7;stroke:#000000;stroke-linecap:square;stroke-width:1.2;"/>
   </g>
   <g id="line2d_20">
    <path clip-path="url(#p0487935610)" d="M 267.377493 145.341513 
L 261.60338 143.907138 
L 255.166129 142.207357 
L 250.162606 141.127213 
L 245.846762 140.421195 
L 241.770085 139.99412 
L 238.63897 139.869353 
L 235.501615 139.970185 
L 232.706921 140.277882 
L 229.586138 140.856879 
L 226.817328 141.584553 
L 224.644365 142.346318 
L 222.501791 143.331268 
L 220.945336 144.24849 
L 219.721588 145.148179 
L 218.687124 146.14353 
L 218.189907 146.87948 
L 218.080391 147.425407 
L 218.269447 147.804722 
L 218.705787 148.099214 
L 219.570187 148.39335 
L 221.557416 148.76343 
L 225.093357 149.138248 
L 229.194972 149.315908 
L 234.356906 149.277958 
L 244.923745 148.937293 
L 251.675476 148.515176 
L 258.182508 147.8566 
L 267.247966 146.853088 
L 267.741713 146.893832 
L 267.741713 146.893832 
" style="fill:none;opacity:0.7;stroke:#000000;stroke-linecap:square;stroke-width:1.2;"/>
   </g>
   <g id="line2d_21">
    <path clip-path="url(#p0487935610)" d="M 328.59151 220.947137 
L 327.256454 220.84576 
L 316.850404 220.399638 
L 306.425178 220.162331 
L 299.186868 220.210115 
L 293.698615 220.456258 
L 289.511776 220.859771 
L 286.171664 221.391368 
L 283.84535 222.011342 
L 281.938719 222.520027 
L 281.182842 222.572659 
L 281.701189 222.607666 
L 287.4618 222.914307 
L 309.721098 223.180799 
L 316.976661 223.025601 
L 324.795365 222.640593 
L 329.854457 222.237644 
L 329.854457 222.237644 
" style="fill:none;opacity:0.7;stroke:#000000;stroke-linecap:square;stroke-width:1.2;"/>
   </g>
   <g id="line2d_22">
    <path clip-path="url(#p0487935610)" d="M 329.211349 202.11349 
L 326.641677 201.853662 
L 311.581073 200.48632 
L 305.621484 200.198879 
L 300.141759 200.148866 
L 295.337393 200.342765 
L 291.431375 200.718191 
L 287.311053 201.317626 
L 284.939392 201.880749 
L 282.720719 202.678931 
L 281.300071 203.415504 
L 280.999958 203.792897 
L 281.096542 203.936664 
L 281.399033 204.063463 
L 282.654712 204.264417 
L 286.227369 204.525284 
L 290.620914 204.609436 
L 301.328791 204.659612 
L 310.308394 204.730322 
L 316.569231 204.558655 
L 322.752287 204.169984 
L 329.03274 203.530091 
L 329.911707 203.432233 
L 329.911707 203.432233 
" style="fill:none;opacity:0.7;stroke:#000000;stroke-linecap:square;stroke-width:1.2;"/>
   </g>
   <g id="line2d_23">
    <path clip-path="url(#p0487935610)" d="M 329.541523 183.216522 
L 318.80878 181.633133 
L 312.576353 180.899796 
L 307.538826 180.525408 
L 302.697907 180.384805 
L 298.281677 180.490293 
L 294.510512 180.800622 
L 290.136496 181.40144 
L 286.839387 182.041609 
L 284.370225 182.769203 
L 282.446564 183.589484 
L 281.268121 184.357172 
L 280.918552 184.827555 
L 280.919626 185.086366 
L 281.183503 185.353378 
L 281.814462 185.578564 
L 283.009502 185.776737 
L 286.253835 186.036505 
L 290.825876 186.176225 
L 309.388278 186.168632 
L 315.150001 185.939018 
L 321.344708 185.441122 
L 330.102129 184.547149 
L 330.102129 184.547149 
" style="fill:none;opacity:0.7;stroke:#000000;stroke-linecap:square;stroke-width:1.2;"/>
   </g>
   <g id="line2d_24">
    <path clip-path="url(#p0487935610)" d="M 329.801181 164.320572 
L 321.221208 162.63071 
L 316.382478 161.748087 
L 311.402243 161.056155 
L 306.675573 160.636929 
L 302.409993 160.49673 
L 299.036856 160.584701 
L 295.638308 160.885596 
L 291.842132 161.465371 
L 288.209711 162.242706 
L 285.618379 163.018304 
L 283.519872 163.878684 
L 281.860583 164.836348 
L 281.105953 165.520208 
L 280.837153 166.081307 
L 280.925875 166.457396 
L 281.163953 166.693399 
L 281.761418 166.972438 
L 282.86762 167.233048 
L 285.596672 167.56437 
L 290.055218 167.844704 
L 294.835886 167.911849 
L 307.110844 167.775804 
L 313.144729 167.493435 
L 318.731946 166.993273 
L 325.262083 166.148681 
L 328.647959 165.731868 
L 330.306887 165.740595 
L 330.306887 165.740595 
" style="fill:none;opacity:0.7;stroke:#000000;stroke-linecap:square;stroke-width:1.2;"/>
   </g>
   <g id="line2d_25">
    <path clip-path="url(#p0487935610)" d="M 330.109242 145.376004 
L 324.527802 143.980579 
L 318.950114 142.590988 
L 314.385638 141.676584 
L 309.981596 141.012261 
L 306.084309 140.626181 
L 302.176299 140.468772 
L 298.579236 140.577952 
L 295.527345 140.894326 
L 292.322923 141.441853 
L 289.026924 142.235386 
L 286.321462 143.142217 
L 284.148146 144.136064 
L 282.701644 145.00793 
L 281.592344 145.907606 
L 280.982859 146.684009 
L 280.808541 147.233117 
L 280.859391 147.608028 
L 281.173719 148.041616 
L 281.739796 148.388218 
L 282.743149 148.724366 
L 284.837369 149.119925 
L 288.622227 149.539377 
L 292.929458 149.76134 
L 298.199861 149.768738 
L 306.523921 149.53728 
L 312.309151 149.173953 
L 317.819447 148.587779 
L 323.331825 147.774347 
L 329.070834 146.931123 
L 330.534829 146.998055 
L 330.534829 146.998055 
" style="fill:none;opacity:0.7;stroke:#000000;stroke-linecap:square;stroke-width:1.2;"/>
   </g>
  </g>
 </g>
 <defs>
  <clipPath id="p0487935610">
   <rect height="329.04" width="329.04" x="15.48" y="15.48"/>
  </clipPath>
 </defs>
</svg>
