<?xml version="1.0" encoding="utf-8" standalone="no"?>
<!DOCTYPE svg PUBLIC "-//W3C//DTD SVG 1.1//EN"
  "http://www.w3.org/Graphics/SVG/1.1/DTD/svg11.dtd">
<!-- Created with matplotlib (http://matplotlib.org/) -->
<svg height="360pt" version="1.1" viewBox="0 0 360 360" width="360pt" xmlns="http://www.w3.org/2000/svg" xmlns:xlink="http://www.w3.org/1999/xlink">
 <defs>
  <style type="text/css">
*{stroke-linecap:butt;stroke-linejoin:round;}
  </style>
 </defs>
 <g id="figure_1">
  <g id="patch_1">
   <path d="M 0 360 
L 360 360 
L 360 0 
L 0 0 
z
" style="fill:#ffffff;"/>
  </g>
  <g id="axes_1">
   <g id="line2d_1">
    <path clip-path="url(#p8f2aae8052)" d="M 78.199732 220.591173 
L 76.713664 220.394992 
L 66.63812 219.447368 
L 56.027937 218.653276 
L 48.073473 218.285147 
L 40.517249 218.159373 
L 37.83496 218.273912 
L 36.16305 218.546013 
L 34.607048 219.010301 
L 33.301512 219.591309 
L 31.820353 220.516929 
L 30.747409 221.470821 
L 30.633268 221.716407 
L 30.652038 221.726544 
L 30.8882 221.705468 
L 36.653222 220.313079 
L 38.896779 220.037657 
L 41.270242 219.950006 
L 44.246898 220.057304 
L 54.495155 220.819718 
L 67.561043 221.665933 
L 75.497952 222.006688 
L 78.851667 221.956281 
L 79.145046 221.916195 
L 79.145046 221.916195 
" style="fill:none;opacity:0.7;stroke:#000000;stroke-linecap:square;stroke-width:1.2;"/>
   </g>
   <g id="line2d_2">
    <path clip-path="url(#p8f2aae8052)" d="M 78.270086 201.765428 
L 76.982409 201.586548 
L 62.102389 199.802987 
L 52.596685 198.709576 
L 47.285011 198.295628 
L 43.273221 198.169048 
L 39.749652 198.268531 
L 37.523597 198.538439 
L 35.84394 198.927985 
L 34.102163 199.555897 
L 32.838328 200.191237 
L 31.558726 201.053528 
L 30.650589 201.921195 
L 30.214306 202.668307 
L 30.242526 203.04132 
L 30.431768 203.197701 
L 31.047597 203.283218 
L 32.571992 203.127503 
L 39.147506 202.31409 
L 42.872589 202.061908 
L 46.765521 202.027259 
L 52.366113 202.230678 
L 74.679599 203.242832 
L 78.342344 203.179818 
L 79.149481 203.077873 
L 79.149481 203.077873 
" style="fill:none;opacity:0.7;stroke:#000000;stroke-linecap:square;stroke-width:1.2;"/>
   </g>
   <g id="line2d_3">
    <path clip-path="url(#p8f2aae8052)" d="M 78.23556 182.973017 
L 77.030819 182.788061 
L 69.650047 181.720755 
L 62.004818 180.330781 
L 53.451693 178.815288 
L 49.406778 178.294632 
L 45.946725 178.064926 
L 43.211803 178.088634 
L 40.571094 178.317516 
L 38.259473 178.723244 
L 36.090288 179.350168 
L 34.322249 180.100203 
L 32.972617 180.862331 
L 31.61106 181.866317 
L 30.612652 182.861598 
L 30.027992 183.726336 
L 29.879344 184.288127 
L 29.971471 184.527087 
L 30.213564 184.674695 
L 30.64386 184.747408 
L 32.173742 184.703321 
L 38.434049 184.144146 
L 44.559736 183.63771 
L 48.994459 183.526635 
L 53.88722 183.631346 
L 67.890885 184.279479 
L 75.467536 184.481784 
L 78.415132 184.393745 
L 79.285043 184.278731 
L 79.285043 184.278731 
" style="fill:none;opacity:0.7;stroke:#000000;stroke-linecap:square;stroke-width:1.2;"/>
   </g>
   <g id="line2d_4">
    <path clip-path="url(#p8f2aae8052)" d="M 78.530538 164.037929 
L 77.47916 163.834896 
L 72.037086 162.810755 
L 66.345197 161.458341 
L 55.090698 158.68944 
L 51.339627 158.020805 
L 48.550465 157.715686 
L 45.86194 157.640227 
L 43.467988 157.78817 
L 41.034428 158.160457 
L 38.585244 158.790739 
L 36.648539 159.51743 
L 34.815666 160.441301 
L 33.07245 161.590347 
L 31.771292 162.678601 
L 30.551247 163.981486 
L 29.858405 164.987353 
L 29.615637 165.65611 
L 29.751058 165.979733 
L 30.048273 166.101279 
L 31.06055 166.163399 
L 33.841986 166.025221 
L 40.077605 165.471464 
L 45.886731 165.011711 
L 50.506234 164.903866 
L 55.741602 165.018631 
L 76.588318 165.751391 
L 79.083144 165.575406 
L 79.388684 165.519273 
L 79.388684 165.519273 
" style="fill:none;opacity:0.7;stroke:#000000;stroke-linecap:square;stroke-width:1.2;"/>
   </g>
   <g id="line2d_5">
    <path clip-path="url(#p8f2aae8052)" d="M 79.121092 144.930845 
L 78.340837 144.727925 
L 73.673256 143.503613 
L 67.834038 141.640006 
L 60.022892 139.164525 
L 56.424241 138.207125 
L 52.619151 137.43472 
L 49.649802 137.084335 
L 47.240855 137.018236 
L 44.714224 137.195394 
L 42.584496 137.554358 
L 40.665989 138.056006 
L 38.615055 138.809081 
L 36.920069 139.631793 
L 35.029822 140.804046 
L 33.372409 142.098243 
L 31.848651 143.569542 
L 30.50281 145.190926 
L 29.603279 146.636713 
L 29.465171 147.139678 
L 29.593467 147.425509 
L 30.001517 147.595121 
L 31.128873 147.688626 
L 34.050452 147.603876 
L 38.798791 147.19983 
L 46.834218 146.466074 
L 51.220244 146.319531 
L 56.136319 146.374046 
L 65.55331 146.751142 
L 74.424106 147.015107 
L 77.621268 146.954706 
L 79.504216 146.714389 
L 79.504216 146.714389 
" style="fill:none;opacity:0.7;stroke:#000000;stroke-linecap:square;stroke-width:1.2;"/>
   </g>
   <g id="line2d_6">
    <path clip-path="url(#p8f2aae8052)" d="M 140.708795 220.643495 
L 137.888671 220.37218 
L 123.146238 219.217068 
L 115.99948 218.869494 
L 109.959134 218.797187 
L 104.752437 218.949722 
L 100.030621 219.275649 
L 98.047297 219.650988 
L 96.368466 220.206853 
L 94.685973 221.035648 
L 92.873466 222.206043 
L 92.919848 222.210825 
L 98.204057 221.557882 
L 102.598593 221.180525 
L 106.646645 221.066339 
L 112.862471 221.15584 
L 133.701009 221.823945 
L 141.255079 221.936372 
L 141.629053 221.924315 
L 141.629053 221.924315 
" style="fill:none;opacity:0.7;stroke:#000000;stroke-linecap:square;stroke-width:1.2;"/>
   </g>
   <g id="line2d_7">
    <path clip-path="url(#p8f2aae8052)" d="M 140.899691 201.806496 
L 138.517045 201.556552 
L 130.636579 200.678816 
L 119.676835 199.4414 
L 113.901848 199.02094 
L 109.477877 198.907878 
L 105.537447 199.024896 
L 101.60381 199.371977 
L 99.476152 199.74795 
L 97.738484 200.250126 
L 95.865631 201.056296 
L 94.363985 201.95493 
L 93.163654 202.918047 
L 92.704632 203.512286 
L 92.776602 203.663764 
L 93.278234 203.740254 
L 95.661963 203.653763 
L 102.851704 203.147372 
L 108.590906 202.853487 
L 114.591191 202.799047 
L 125.547343 202.983837 
L 139.699882 203.181222 
L 141.658751 203.129422 
L 141.658751 203.129422 
" style="fill:none;opacity:0.7;stroke:#000000;stroke-linecap:square;stroke-width:1.2;"/>
   </g>
   <g id="line2d_8">
    <path clip-path="url(#p8f2aae8052)" d="M 140.941185 183.016674 
L 138.268549 182.709863 
L 132.959098 181.961465 
L 116.071511 179.300983 
L 112.080957 178.998217 
L 108.75164 178.967039 
L 105.45651 179.184087 
L 102.507762 179.59144 
L 100.169693 180.114115 
L 98.270811 180.742714 
L 96.32233 181.645511 
L 94.800259 182.59067 
L 93.637869 183.527702 
L 92.786742 184.507124 
L 92.673175 184.857218 
L 92.748043 185.008803 
L 93.186822 185.157233 
L 94.578666 185.200255 
L 99.562299 185.001129 
L 110.100685 184.520595 
L 118.189809 184.447813 
L 141.266465 184.375379 
L 141.769478 184.349956 
L 141.769478 184.349956 
" style="fill:none;opacity:0.7;stroke:#000000;stroke-linecap:square;stroke-width:1.2;"/>
   </g>
   <g id="line2d_9">
    <path clip-path="url(#p8f2aae8052)" d="M 141.060272 164.175023 
L 130.979936 162.323439 
L 119.94963 159.846365 
L 115.886758 159.192875 
L 112.646147 158.88643 
L 109.718783 158.83864 
L 106.578039 159.069746 
L 103.753504 159.521246 
L 101.142202 160.173801 
L 99.104776 160.901399 
L 97.147257 161.841505 
L 95.676273 162.74719 
L 94.315148 163.795516 
L 93.284456 164.814249 
L 92.649455 165.755057 
L 92.599024 166.109478 
L 92.72426 166.308062 
L 93.189772 166.500344 
L 94.215565 166.625341 
L 96.911824 166.678699 
L 101.522633 166.532022 
L 113.941321 166.009898 
L 124.776418 165.913656 
L 136.957275 165.74577 
L 141.940667 165.51519 
L 141.940667 165.51519 
" style="fill:none;opacity:0.7;stroke:#000000;stroke-linecap:square;stroke-width:1.2;"/>
   </g>
   <g id="line2d_10">
    <path clip-path="url(#p8f2aae8052)" d="M 141.581704 145.14946 
L 133.268152 143.061315 
L 123.705774 140.299071 
L 119.227889 139.266281 
L 116.11435 138.734444 
L 113.032703 138.420103 
L 110.525857 138.364899 
L 107.721938 138.550582 
L 105.213766 138.943827 
L 102.764795 139.549121 
L 100.651196 140.287572 
L 98.935901 141.070703 
L 96.972415 142.2158 
L 95.245582 143.503605 
L 93.887857 144.789792 
L 92.928647 145.993232 
L 92.503671 146.883144 
L 92.504238 147.326301 
L 92.796252 147.691727 
L 93.19402 147.886961 
L 94.34907 148.151039 
L 96.442051 148.343655 
L 99.409742 148.392171 
L 103.63525 148.218889 
L 118.055197 147.436369 
L 129.340504 147.227581 
L 138.014949 146.98166 
L 142.101242 146.671498 
L 142.101242 146.671498 
" style="fill:none;opacity:0.7;stroke:#000000;stroke-linecap:square;stroke-width:1.2;"/>
   </g>
   <g id="line2d_11">
    <path clip-path="url(#p8f2aae8052)" d="M 203.178562 220.742993 
L 199.893251 220.48972 
L 183.492122 219.441336 
L 176.673381 219.251788 
L 171.288876 219.318339 
L 166.393446 219.616152 
L 162.00879 220.076574 
L 159.895593 220.517831 
L 158.41228 221.018061 
L 156.551315 221.903052 
L 155.549784 222.407647 
L 155.831301 222.385841 
L 164.279416 221.890804 
L 169.308119 221.73551 
L 178.136996 221.747315 
L 204.129616 221.935728 
L 204.129616 221.935728 
" style="fill:none;opacity:0.7;stroke:#000000;stroke-linecap:square;stroke-width:1.2;"/>
   </g>
   <g id="line2d_12">
    <path clip-path="url(#p8f2aae8052)" d="M 203.623063 201.886287 
L 200.232685 201.564188 
L 191.810678 200.621848 
L 184.264159 199.837871 
L 178.27313 199.437 
L 173.759936 199.341269 
L 169.609823 199.47684 
L 165.605415 199.829812 
L 162.538245 200.279904 
L 160.304648 200.842922 
L 158.3571 201.592532 
L 156.866231 202.395941 
L 155.818795 203.186579 
L 155.507727 203.626064 
L 155.563852 203.787379 
L 155.779003 203.885356 
L 156.611468 203.977229 
L 159.299085 203.9806 
L 165.648301 203.726847 
L 172.983939 203.505402 
L 186.751533 203.398534 
L 204.146223 203.184497 
L 204.146223 203.184497 
" style="fill:none;opacity:0.7;stroke:#000000;stroke-linecap:square;stroke-width:1.2;"/>
   </g>
   <g id="line2d_13">
    <path clip-path="url(#p8f2aae8052)" d="M 203.731704 183.035506 
L 179.573749 179.791964 
L 175.653683 179.570819 
L 171.913888 179.5857 
L 168.552169 179.828128 
L 165.190328 180.27659 
L 162.361309 180.878919 
L 160.171158 181.585761 
L 158.67812 182.236015 
L 157.140455 183.108361 
L 156.10783 183.896751 
L 155.533968 184.56792 
L 155.450339 184.899596 
L 155.622722 185.136681 
L 156.228659 185.326662 
L 157.77875 185.460162 
L 161.821139 185.494748 
L 169.774007 185.255265 
L 182.61821 184.962591 
L 198.178767 184.545234 
L 204.275463 184.336087 
L 204.275463 184.336087 
" style="fill:none;opacity:0.7;stroke:#000000;stroke-linecap:square;stroke-width:1.2;"/>
   </g>
   <g id="line2d_14">
    <path clip-path="url(#p8f2aae8052)" d="M 203.928433 164.177148 
L 194.862393 162.641051 
L 185.563806 160.798621 
L 180.681723 160.083079 
L 176.732124 159.737621 
L 173.366631 159.678458 
L 170.714304 159.820541 
L 167.895652 160.153028 
L 164.691312 160.754553 
L 162.595981 161.323381 
L 160.316869 162.172759 
L 158.327299 163.183444 
L 157.041747 164.035033 
L 156.004968 164.939833 
L 155.445722 165.721944 
L 155.405111 166.150485 
L 155.544453 166.352605 
L 156.079821 166.611932 
L 157.173758 166.819642 
L 159.353525 166.999333 
L 163.480352 167.082737 
L 169.416804 166.927267 
L 196.529362 165.843661 
L 204.480189 165.457129 
L 204.480189 165.457129 
" style="fill:none;opacity:0.7;stroke:#000000;stroke-linecap:square;stroke-width:1.2;"/>
   </g>
   <g id="line2d_15">
    <path clip-path="url(#p8f2aae8052)" d="M 204.357616 145.217594 
L 198.471567 143.953632 
L 186.323821 140.888467 
L 181.708833 140.039282 
L 178.553059 139.641126 
L 175.37921 139.443251 
L 172.867719 139.466619 
L 170.129508 139.693766 
L 167.075025 140.191507 
L 164.342494 140.881023 
L 162.198108 141.639044 
L 160.107607 142.621144 
L 158.15726 143.825106 
L 156.862178 144.854444 
L 155.863949 145.902287 
L 155.398777 146.660911 
L 155.297919 147.122697 
L 155.438681 147.538909 
L 155.913734 147.902421 
L 156.94534 148.244592 
L 158.582423 148.526841 
L 161.185428 148.763655 
L 164.972105 148.858566 
L 169.451527 148.736804 
L 182.895195 148.028055 
L 197.796826 147.097276 
L 204.773573 146.686933 
L 204.773573 146.686933 
" style="fill:none;opacity:0.7;stroke:#000000;stroke-linecap:square;stroke-width:1.2;"/>
   </g>
   <g id="line2d_16">
    <path clip-path="url(#p8f2aae8052)" d="M 265.668227 220.832096 
L 262.772224 220.655116 
L 246.709161 219.958798 
L 238.636943 219.818467 
L 232.618659 219.937423 
L 228.284387 220.227105 
L 224.3755 220.678034 
L 222.084632 221.162816 
L 220.315944 221.741821 
L 218.446017 222.518913 
L 218.507734 222.541252 
L 220.166713 222.582021 
L 225.181415 222.515068 
L 233.903921 222.394683 
L 253.316291 222.271469 
L 266.80204 222.072129 
L 266.80204 222.072129 
" style="fill:none;opacity:0.7;stroke:#000000;stroke-linecap:square;stroke-width:1.2;"/>
   </g>
   <g id="line2d_17">
    <path clip-path="url(#p8f2aae8052)" d="M 266.306502 201.975787 
L 262.844108 201.659751 
L 243.97975 199.97416 
L 238.366768 199.813328 
L 234.204588 199.890463 
L 230.148901 200.172941 
L 225.832918 200.676599 
L 223.505301 201.131516 
L 221.79187 201.638048 
L 219.882182 202.444041 
L 218.711049 203.175131 
L 218.331297 203.649602 
L 218.358262 203.793482 
L 218.530264 203.925021 
L 219.312353 204.099633 
L 221.492171 204.243074 
L 225.713461 204.293109 
L 251.714386 203.886537 
L 262.022748 203.509388 
L 266.756364 203.257152 
L 266.756364 203.257152 
" style="fill:none;opacity:0.7;stroke:#000000;stroke-linecap:square;stroke-width:1.2;"/>
   </g>
   <g id="line2d_18">
    <path clip-path="url(#p8f2aae8052)" d="M 266.578092 183.06065 
L 245.70512 180.417001 
L 240.93865 180.099894 
L 236.659382 180.036559 
L 233.022627 180.198521 
L 228.987818 180.617601 
L 225.58587 181.186658 
L 223.135626 181.833423 
L 221.081906 182.624655 
L 219.639321 183.396156 
L 218.746432 184.063772 
L 218.296867 184.637003 
L 218.266231 184.944564 
L 218.501627 185.208285 
L 219.233031 185.44746 
L 220.882955 185.647021 
L 224.596884 185.81425 
L 229.649648 185.814839 
L 244.324299 185.476281 
L 254.043997 185.053781 
L 266.95446 184.319297 
L 266.95446 184.319297 
" style="fill:none;opacity:0.7;stroke:#000000;stroke-linecap:square;stroke-width:1.2;"/>
   </g>
   <g id="line2d_19">
    <path clip-path="url(#p8f2aae8052)" d="M 266.853376 164.178843 
L 257.62714 162.614869 
L 250.186248 161.287324 
L 245.09698 160.614622 
L 240.820203 160.27105 
L 237.339903 160.193007 
L 233.988872 160.334837 
L 230.64923 160.698699 
L 227.526414 161.230385 
L 224.932002 161.869268 
L 222.668751 162.6553 
L 220.662722 163.617412 
L 219.472036 164.383052 
L 218.595088 165.162773 
L 218.19328 165.825111 
L 218.227105 166.23847 
L 218.421523 166.461123 
L 219.079922 166.766584 
L 220.282132 167.023051 
L 222.607498 167.283052 
L 226.391864 167.478782 
L 231.206042 167.478196 
L 239.993187 167.20573 
L 249.007101 166.732135 
L 259.380965 165.934107 
L 265.161078 165.507599 
L 267.248698 165.501228 
L 267.248698 165.501228 
" style="fill:none;opacity:0.7;stroke:#000000;stroke-linecap:square;stroke-width:1.2;"/>
   </g>
   <g id="line2d_20">
    <path clip-path="url(#p8f2aae8052)" d="M 267.229018 145.240177 
L 260.636821 143.821022 
L 252.767477 141.972242 
L 247.424705 140.982345 
L 243.044845 140.410514 
L 239.284801 140.14975 
L 235.771283 140.160062 
L 232.858526 140.38902 
L 229.768333 140.850595 
L 227.23749 141.41024 
L 225.046558 142.07485 
L 222.734412 143.02997 
L 220.806022 144.108594 
L 219.646199 144.953956 
L 218.664866 145.919057 
L 218.200713 146.680365 
L 218.115564 147.155381 
L 218.266419 147.598828 
L 218.573678 147.900595 
L 219.299758 148.258847 
L 220.51435 148.583575 
L 223.152707 148.974822 
L 226.94049 149.257318 
L 231.289787 149.315676 
L 237.167435 149.134603 
L 245.07019 148.662751 
L 253.297348 147.948415 
L 266.588353 146.724563 
L 267.598788 146.759405 
L 267.598788 146.759405 
" style="fill:none;opacity:0.7;stroke:#000000;stroke-linecap:square;stroke-width:1.2;"/>
   </g>
   <g id="line2d_21">
    <path clip-path="url(#p8f2aae8052)" d="M 328.320435 220.925302 
L 326.783887 220.836703 
L 315.611991 220.565806 
L 303.9129 220.467864 
L 296.292134 220.605806 
L 291.048943 220.903192 
L 287.100082 221.332869 
L 284.604792 221.814781 
L 281.387363 222.597307 
L 281.504617 222.654615 
L 282.605272 222.76621 
L 286.930411 222.952765 
L 294.572713 222.961236 
L 311.183376 222.895106 
L 321.745745 222.574109 
L 329.708812 222.182472 
L 329.708812 222.182472 
" style="fill:none;opacity:0.7;stroke:#000000;stroke-linecap:square;stroke-width:1.2;"/>
   </g>
   <g id="line2d_22">
    <path clip-path="url(#p8f2aae8052)" d="M 329.094133 202.039199 
L 326.652656 201.833751 
L 308.278364 200.513339 
L 301.915506 200.352928 
L 296.7828 200.446475 
L 292.40263 200.744838 
L 287.58943 201.293989 
L 285.156938 201.798682 
L 283.36212 202.357356 
L 281.866838 203.026141 
L 281.273109 203.505084 
L 281.196485 203.77807 
L 281.343778 203.969636 
L 281.67339 204.117843 
L 282.835373 204.325119 
L 285.728864 204.531913 
L 289.902895 204.632176 
L 309.255468 204.47868 
L 316.767684 204.242059 
L 324.565644 203.777373 
L 329.827704 203.328613 
L 329.827704 203.328613 
" style="fill:none;opacity:0.7;stroke:#000000;stroke-linecap:square;stroke-width:1.2;"/>
   </g>
   <g id="line2d_23">
    <path clip-path="url(#p8f2aae8052)" d="M 329.50608 183.113262 
L 319.289569 181.820193 
L 313.088174 181.123515 
L 307.3599 180.702392 
L 302.199714 180.557455 
L 297.853434 180.656526 
L 293.568708 180.989983 
L 288.846522 181.586506 
L 285.904124 182.195688 
L 283.952443 182.811737 
L 282.525795 183.441664 
L 281.562793 184.069062 
L 281.155637 184.534672 
L 281.063273 184.920972 
L 281.165884 185.16 
L 281.431245 185.377138 
L 282.018095 185.601963 
L 283.135637 185.80816 
L 286.213722 186.06365 
L 291.238958 186.220947 
L 299.390303 186.152411 
L 308.839493 185.916937 
L 315.934923 185.518887 
L 324.601964 184.792977 
L 329.78505 184.425245 
L 329.975422 184.425067 
L 329.975422 184.425067 
" style="fill:none;opacity:0.7;stroke:#000000;stroke-linecap:square;stroke-width:1.2;"/>
   </g>
   <g id="line2d_24">
    <path clip-path="url(#p8f2aae8052)" d="M 329.784508 164.209347 
L 310.549548 161.189438 
L 305.674579 160.799183 
L 301.581219 160.688014 
L 297.646363 160.815601 
L 294.012416 161.158227 
L 290.341041 161.702332 
L 287.263331 162.378135 
L 285.01406 163.094297 
L 283.532757 163.725385 
L 282.217234 164.473487 
L 281.398883 165.162732 
L 281.038368 165.735363 
L 281.014 166.19645 
L 281.243417 166.564157 
L 281.623471 166.823769 
L 282.593578 167.153762 
L 284.506171 167.468723 
L 288.019157 167.785275 
L 292.457058 167.965706 
L 298.173985 167.937344 
L 304.9518 167.707228 
L 311.379731 167.288621 
L 318.141138 166.639789 
L 328.216454 165.596705 
L 330.214107 165.619096 
L 330.214107 165.619096 
" style="fill:none;opacity:0.7;stroke:#000000;stroke-linecap:square;stroke-width:1.2;"/>
   </g>
   <g id="line2d_25">
    <path clip-path="url(#p8f2aae8052)" d="M 330.091337 145.273572 
L 323.450002 143.844195 
L 317.427723 142.517896 
L 312.536736 141.652467 
L 307.624117 141.026429 
L 303.421218 140.727156 
L 299.717252 140.693098 
L 296.377835 140.887192 
L 292.954075 141.316671 
L 289.535632 141.992526 
L 287.31837 142.623577 
L 285.007585 143.528471 
L 283.561578 144.281257 
L 282.292506 145.142849 
L 281.427312 145.980505 
L 280.995283 146.756908 
L 280.954459 147.277631 
L 281.122678 147.714075 
L 281.409715 148.035508 
L 282.185855 148.487428 
L 283.454244 148.873333 
L 285.883559 149.286423 
L 290.065991 149.696387 
L 294.077498 149.854241 
L 298.816447 149.815381 
L 304.863378 149.536184 
L 310.799752 149.036405 
L 317.349754 148.252359 
L 328.740309 146.828665 
L 330.534829 146.88443 
L 330.534829 146.88443 
" style="fill:none;opacity:0.7;stroke:#000000;stroke-linecap:square;stroke-width:1.2;"/>
   </g>
  </g>
 </g>
 <defs>
  <clipPath id="p8f2aae8052">
   <rect height="329.04" width="329.04" x="15.48" y="15.48"/>
  </clipPath>
 </defs>
</svg>
