<?xml version="1.0" encoding="utf-8" standalone="no"?>
<!DOCTYPE svg PUBLIC "-//W3C//DTD SVG 1.1//EN"
  "http://www.w3.org/Graphics/SVG/1.1/DTD/svg11.dtd">
<!-- Created with matplotlib (http://matplotlib.org/) -->
<svg height="360pt" version="1.1" viewBox="0 0 360 360" width="360pt" xmlns="http://www.w3.org/2000/svg" xmlns:xlink="http://www.w3.org/1999/xlink">
 <defs>
  <style type="text/css">
*{stroke-linecap:butt;stroke-linejoin:round;}
  </style>
 </defs>
 <g id="figure_1">
  <g id="patch_1">
   <path d="M 0 360 
L 360 360 
L 360 0 
L 0 0 
z
" style="fill:#ffffff;"/>
  </g>
  <g id="axes_1">
   <g id="line2d_1">
    <path clip-path="url(#pdbf5ed1aa2)" d="M 78.306579 220.411978 
L 75.962916 220.082262 
L 65.675151 218.906219 
L 58.219823 218.264438 
L 51.707173 217.939488 
L 46.813174 217.903622 
L 42.642199 218.091868 
L 39.500643 218.434699 
L 36.971605 218.906078 
L 35.179687 219.430528 
L 33.395028 220.178886 
L 31.778803 221.093363 
L 30.32697 222.192929 
L 29.983653 222.640194 
L 30.00477 222.651385 
L 30.255718 222.58516 
L 31.784325 221.776522 
L 34.522579 220.388522 
L 36.442256 219.662552 
L 38.163613 219.228783 
L 40.064736 218.989704 
L 41.853256 218.953875 
L 44.862303 219.12845 
L 77.051042 221.844188 
L 78.741065 221.847593 
L 78.741065 221.847593 
" style="fill:none;opacity:0.7;stroke:#000000;stroke-linecap:square;stroke-width:1.2;"/>
   </g>
   <g id="line2d_2">
    <path clip-path="url(#pdbf5ed1aa2)" d="M 78.269098 201.576147 
L 76.061398 201.251182 
L 56.165304 198.584091 
L 50.855486 198.200766 
L 46.354045 198.101155 
L 42.640559 198.245217 
L 39.596627 198.549915 
L 37.110786 198.981364 
L 35.485259 199.436115 
L 33.772171 200.128671 
L 32.050646 201.1031 
L 30.877484 201.999171 
L 30.076532 202.841648 
L 29.729284 203.530906 
L 29.778181 203.766495 
L 30.074833 203.897509 
L 30.659434 203.844503 
L 32.402193 203.343698 
L 36.16993 202.216061 
L 38.938385 201.644595 
L 41.665241 201.348425 
L 44.628959 201.257181 
L 49.660084 201.360243 
L 58.745265 201.807177 
L 78.760178 202.922715 
L 78.760178 202.922715 
" style="fill:none;opacity:0.7;stroke:#000000;stroke-linecap:square;stroke-width:1.2;"/>
   </g>
   <g id="line2d_3">
    <path clip-path="url(#pdbf5ed1aa2)" d="M 78.002137 182.683971 
L 75.043719 182.238622 
L 68.667469 181.136931 
L 58.393304 179.314438 
L 52.89918 178.585463 
L 48.758931 178.248712 
L 45.435956 178.174559 
L 42.402725 178.305731 
L 39.464922 178.642667 
L 37.276069 179.106687 
L 35.521107 179.690867 
L 33.797267 180.50107 
L 32.459832 181.327656 
L 31.264398 182.26724 
L 30.25527 183.323674 
L 29.682052 184.290119 
L 29.634722 184.812789 
L 29.858526 185.063566 
L 30.301417 185.149885 
L 31.159044 185.074251 
L 33.833139 184.511823 
L 38.23121 183.60412 
L 41.355237 183.168053 
L 44.981059 182.885893 
L 49.465134 182.751993 
L 55.971868 182.80952 
L 63.735557 183.118791 
L 75.495283 183.849428 
L 78.850523 183.983901 
L 78.850523 183.983901 
" style="fill:none;opacity:0.7;stroke:#000000;stroke-linecap:square;stroke-width:1.2;"/>
   </g>
   <g id="line2d_4">
    <path clip-path="url(#pdbf5ed1aa2)" d="M 78.127759 163.691738 
L 75.694169 163.257798 
L 71.506139 162.425924 
L 53.740777 158.600581 
L 49.636567 158.070069 
L 46.359186 157.878253 
L 43.592634 157.937385 
L 40.897818 158.2362 
L 38.695847 158.718211 
L 36.772197 159.375608 
L 35.245906 160.08435 
L 33.401674 161.198467 
L 31.778874 162.477258 
L 30.594673 163.694573 
L 29.820009 164.800144 
L 29.501574 165.671631 
L 29.555493 166.06757 
L 29.806688 166.303852 
L 30.406142 166.426698 
L 31.50225 166.370105 
L 34.105151 165.943978 
L 42.496363 164.422307 
L 46.702266 163.978745 
L 51.412077 163.729639 
L 56.452382 163.693524 
L 62.526667 163.885335 
L 69.374712 164.317324 
L 78.917633 165.065053 
L 78.917633 165.065053 
" style="fill:none;opacity:0.7;stroke:#000000;stroke-linecap:square;stroke-width:1.2;"/>
   </g>
   <g id="line2d_5">
    <path clip-path="url(#pdbf5ed1aa2)" d="M 78.658951 144.565347 
L 76.560758 144.084175 
L 72.799726 143.124763 
L 55.254058 138.278887 
L 51.732521 137.616736 
L 48.73607 137.255382 
L 46.397863 137.155996 
L 43.93433 137.273316 
L 41.85753 137.585827 
L 39.939554 138.083267 
L 37.798232 138.912627 
L 36.045739 139.828716 
L 34.047346 141.165606 
L 32.416206 142.538952 
L 31.048478 143.97933 
L 29.967686 145.507988 
L 29.559916 146.418391 
L 29.471238 147.093514 
L 29.639272 147.508523 
L 29.984069 147.756718 
L 30.821107 147.938932 
L 32.255453 147.922455 
L 34.670698 147.613145 
L 38.840836 146.80472 
L 44.726704 145.704647 
L 48.759882 145.155994 
L 52.979173 144.79993 
L 57.345181 144.66185 
L 62.498989 144.753443 
L 68.252421 145.102475 
L 75.690432 145.813264 
L 79.078319 146.104564 
L 79.078319 146.104564 
" style="fill:none;opacity:0.7;stroke:#000000;stroke-linecap:square;stroke-width:1.2;"/>
   </g>
   <g id="line2d_6">
    <path clip-path="url(#pdbf5ed1aa2)" d="M 140.838577 220.463362 
L 137.778387 220.150253 
L 124.065949 218.974065 
L 117.275147 218.628143 
L 111.565091 218.56293 
L 107.071083 218.724688 
L 102.75889 219.116551 
L 99.460164 219.609582 
L 97.531542 220.062729 
L 95.595876 220.71515 
L 93.970883 221.475782 
L 92.901635 222.208931 
L 92.74607 222.513083 
L 92.926126 222.587318 
L 93.736508 222.498271 
L 96.929878 221.742989 
L 99.947182 221.119953 
L 102.735521 220.760875 
L 105.627718 220.597366 
L 110.455296 220.592107 
L 119.641606 220.866885 
L 135.515242 221.593129 
L 141.441914 221.83023 
L 141.441914 221.83023 
" style="fill:none;opacity:0.7;stroke:#000000;stroke-linecap:square;stroke-width:1.2;"/>
   </g>
   <g id="line2d_7">
    <path clip-path="url(#pdbf5ed1aa2)" d="M 140.743176 201.61631 
L 137.824259 201.294449 
L 127.686601 200.090027 
L 120.270959 199.311266 
L 114.717834 198.947188 
L 110.56176 198.865696 
L 106.56925 199.004423 
L 102.693145 199.361148 
L 99.459878 199.867443 
L 97.321917 200.430927 
L 95.620324 201.083205 
L 94.245666 201.798996 
L 93.221305 202.529658 
L 92.645136 203.185265 
L 92.56128 203.511687 
L 92.709605 203.736713 
L 93.177605 203.883833 
L 94.009493 203.917088 
L 96.163387 203.74617 
L 107.902105 202.499439 
L 113.113183 202.331874 
L 120.232522 202.355879 
L 130.229496 202.628892 
L 141.298925 202.990292 
L 141.298925 202.990292 
" style="fill:none;opacity:0.7;stroke:#000000;stroke-linecap:square;stroke-width:1.2;"/>
   </g>
   <g id="line2d_8">
    <path clip-path="url(#pdbf5ed1aa2)" d="M 140.478289 182.759984 
L 135.947963 182.245574 
L 129.881023 181.37793 
L 119.387136 179.831661 
L 114.555747 179.344475 
L 110.390741 179.153322 
L 106.76576 179.228793 
L 103.478323 179.503492 
L 100.558471 179.951758 
L 98.666952 180.421725 
L 96.6999 181.129234 
L 94.8973 182.040806 
L 93.745836 182.8256 
L 92.883602 183.634626 
L 92.464393 184.332669 
L 92.449724 184.65289 
L 92.676005 184.947843 
L 93.189756 185.138543 
L 94.14719 185.239143 
L 96.169426 185.193669 
L 100.516161 184.789414 
L 107.318078 184.15968 
L 113.119283 183.863199 
L 120.206356 183.744985 
L 129.175283 183.840394 
L 141.382295 184.120027 
L 141.382295 184.120027 
" style="fill:none;opacity:0.7;stroke:#000000;stroke-linecap:square;stroke-width:1.2;"/>
   </g>
   <g id="line2d_9">
    <path clip-path="url(#pdbf5ed1aa2)" d="M 140.50318 163.866928 
L 128.772274 161.935451 
L 118.938385 160.029655 
L 114.602675 159.4151 
L 111.222061 159.132516 
L 108.33657 159.080673 
L 105.006188 159.267828 
L 102.521042 159.600059 
L 100.008695 160.18225 
L 97.981759 160.905556 
L 96.163278 161.802946 
L 94.419145 162.966095 
L 93.372156 163.904932 
L 92.651772 164.831466 
L 92.405323 165.524816 
L 92.510471 165.96969 
L 92.887182 166.292746 
L 93.509681 166.514074 
L 94.949438 166.699611 
L 97.201418 166.697804 
L 100.436347 166.447042 
L 112.382609 165.309028 
L 118.235116 165.008735 
L 125.352879 164.884886 
L 133.966034 164.986782 
L 141.595148 165.136274 
L 141.595148 165.136274 
" style="fill:none;opacity:0.7;stroke:#000000;stroke-linecap:square;stroke-width:1.2;"/>
   </g>
   <g id="line2d_10">
    <path clip-path="url(#pdbf5ed1aa2)" d="M 141.204495 144.768927 
L 130.453075 142.41606 
L 120.853493 140.044722 
L 116.19311 139.135852 
L 112.623583 138.656879 
L 109.632784 138.475435 
L 106.899288 138.54075 
L 104.455542 138.824318 
L 102.450731 139.253163 
L 100.257416 139.968939 
L 98.580345 140.713734 
L 96.610096 141.837908 
L 94.807157 143.163167 
L 93.659336 144.236693 
L 92.928415 145.113853 
L 92.391524 146.106251 
L 92.300898 146.750343 
L 92.487989 147.272988 
L 92.897335 147.666885 
L 93.716674 148.046084 
L 95.059945 148.332652 
L 96.8327 148.458916 
L 99.106282 148.405789 
L 102.579004 148.079574 
L 116.817433 146.481908 
L 122.311554 146.175482 
L 128.276155 146.07224 
L 136.405789 146.182049 
L 141.773174 146.204521 
L 141.773174 146.204521 
" style="fill:none;opacity:0.7;stroke:#000000;stroke-linecap:square;stroke-width:1.2;"/>
   </g>
   <g id="line2d_11">
    <path clip-path="url(#pdbf5ed1aa2)" d="M 203.079492 220.563779 
L 200.111487 220.371061 
L 183.718609 219.59092 
L 175.730445 219.427635 
L 170.126392 219.516859 
L 165.409007 219.80171 
L 161.816537 220.198077 
L 159.525202 220.667642 
L 157.489214 221.326979 
L 156.022855 222.051139 
L 155.652207 222.43913 
L 155.743162 222.536076 
L 156.156374 222.592542 
L 157.717061 222.515395 
L 163.348298 221.902029 
L 167.861396 221.539655 
L 173.514958 221.34562 
L 181.712666 221.310751 
L 193.518212 221.506846 
L 204.156095 221.838449 
L 204.156095 221.838449 
" style="fill:none;opacity:0.7;stroke:#000000;stroke-linecap:square;stroke-width:1.2;"/>
   </g>
   <g id="line2d_12">
    <path clip-path="url(#pdbf5ed1aa2)" d="M 203.212038 201.687148 
L 199.967449 201.408559 
L 190.657808 200.519494 
L 181.008156 199.638103 
L 175.34072 199.357559 
L 170.924408 199.367463 
L 166.729555 199.617756 
L 163.030625 200.061597 
L 160.626701 200.588304 
L 158.959891 201.134366 
L 157.499699 201.785453 
L 156.432697 202.431443 
L 155.697223 203.116233 
L 155.558065 203.530334 
L 155.723813 203.758893 
L 156.243821 203.935492 
L 157.619676 204.033468 
L 160.556175 203.928216 
L 176.4039 202.96529 
L 185.143677 202.837017 
L 196.935181 202.908128 
L 203.881361 203.010613 
L 203.881361 203.010613 
" style="fill:none;opacity:0.7;stroke:#000000;stroke-linecap:square;stroke-width:1.2;"/>
   </g>
   <g id="line2d_13">
    <path clip-path="url(#pdbf5ed1aa2)" d="M 203.269513 182.778413 
L 199.213003 182.393418 
L 193.088401 181.668697 
L 180.309005 180.072445 
L 175.898515 179.751329 
L 171.74879 179.678911 
L 168.276503 179.833429 
L 164.982602 180.168464 
L 162.506212 180.6145 
L 160.545065 181.159813 
L 158.696909 181.886584 
L 157.276447 182.644962 
L 156.227639 183.406435 
L 155.567256 184.167883 
L 155.456025 184.593499 
L 155.620892 184.902352 
L 156.110618 185.14631 
L 156.93473 185.305405 
L 159.046901 185.411838 
L 162.546484 185.310189 
L 183.441189 184.264288 
L 193.851369 184.125548 
L 203.932995 184.120904 
L 203.932995 184.120904 
" style="fill:none;opacity:0.7;stroke:#000000;stroke-linecap:square;stroke-width:1.2;"/>
   </g>
   <g id="line2d_14">
    <path clip-path="url(#pdbf5ed1aa2)" d="M 203.429784 163.865519 
L 198.81772 163.340563 
L 193.482171 162.537511 
L 180.47139 160.442286 
L 176.375381 160.025166 
L 172.651302 159.863066 
L 169.629172 159.925994 
L 166.141263 160.230419 
L 163.73107 160.636469 
L 161.679831 161.177725 
L 159.6022 161.974248 
L 157.781024 162.950179 
L 156.693083 163.725005 
L 155.819888 164.567563 
L 155.408908 165.211421 
L 155.320731 165.638782 
L 155.483975 166.058425 
L 155.949626 166.395532 
L 156.6819 166.645759 
L 158.23846 166.895488 
L 160.710997 167.017056 
L 163.978538 166.943638 
L 170.589273 166.500464 
L 182.377077 165.719149 
L 190.477416 165.413802 
L 203.307971 165.19694 
L 204.126136 165.183358 
L 204.126136 165.183358 
" style="fill:none;opacity:0.7;stroke:#000000;stroke-linecap:square;stroke-width:1.2;"/>
   </g>
   <g id="line2d_15">
    <path clip-path="url(#pdbf5ed1aa2)" d="M 203.872796 144.898343 
L 192.662308 142.855284 
L 182.382641 140.656004 
L 178.045433 139.946446 
L 174.372328 139.559255 
L 171.112057 139.455054 
L 168.447357 139.57741 
L 165.803663 139.926331 
L 163.633583 140.439717 
L 161.428352 141.230545 
L 159.449028 142.221308 
L 157.963328 143.188324 
L 156.873272 144.076071 
L 155.877773 145.142937 
L 155.331431 146.094032 
L 155.225691 146.721399 
L 155.414694 147.313606 
L 155.873363 147.781824 
L 156.525874 148.139705 
L 157.664992 148.498508 
L 159.349485 148.774582 
L 161.71559 148.912382 
L 164.734018 148.846439 
L 168.873661 148.52529 
L 186.704774 146.891106 
L 194.386938 146.572816 
L 204.452021 146.307947 
L 204.452021 146.307947 
" style="fill:none;opacity:0.7;stroke:#000000;stroke-linecap:square;stroke-width:1.2;"/>
   </g>
   <g id="line2d_16">
    <path clip-path="url(#pdbf5ed1aa2)" d="M 265.288058 220.644905 
L 263.392673 220.567201 
L 250.861952 220.446608 
L 234.071652 220.456394 
L 227.088687 220.669056 
L 223.888385 220.955782 
L 221.514241 221.394845 
L 219.322475 222.017599 
L 218.6777 222.402093 
L 218.700983 222.498662 
L 218.989985 222.585905 
L 220.509136 222.636132 
L 224.29264 222.495677 
L 233.882683 222.053599 
L 246.230994 221.78407 
L 258.06598 221.731772 
L 266.802069 221.893745 
L 266.802069 221.893745 
" style="fill:none;opacity:0.7;stroke:#000000;stroke-linecap:square;stroke-width:1.2;"/>
   </g>
   <g id="line2d_17">
    <path clip-path="url(#pdbf5ed1aa2)" d="M 265.979618 201.727523 
L 263.044323 201.532062 
L 250.339252 200.69084 
L 241.199155 200.176521 
L 235.689417 200.067432 
L 231.026638 200.189037 
L 226.751431 200.505089 
L 224.10808 200.901358 
L 222.033512 201.430156 
L 220.23931 202.116538 
L 219.004684 202.850845 
L 218.588604 203.325488 
L 218.550368 203.601871 
L 218.746869 203.84137 
L 219.34378 204.050263 
L 220.82705 204.197747 
L 223.827818 204.201602 
L 230.359427 203.938353 
L 244.269462 203.390263 
L 256.585004 203.144225 
L 266.775059 203.064956 
L 266.775059 203.064956 
" style="fill:none;opacity:0.7;stroke:#000000;stroke-linecap:square;stroke-width:1.2;"/>
   </g>
   <g id="line2d_18">
    <path clip-path="url(#pdbf5ed1aa2)" d="M 266.340549 182.797803 
L 263.124278 182.520105 
L 256.0522 181.812854 
L 243.75935 180.520422 
L 238.901952 180.22466 
L 234.696837 180.169925 
L 230.605289 180.341848 
L 227.109451 180.689913 
L 224.661345 181.13755 
L 222.766236 181.668666 
L 220.826719 182.450453 
L 219.592308 183.155258 
L 218.810207 183.804643 
L 218.432549 184.405303 
L 218.453027 184.797841 
L 218.642183 185.033327 
L 219.220048 185.31662 
L 220.137572 185.513383 
L 222.358083 185.691677 
L 226.344713 185.717373 
L 232.691324 185.485158 
L 259.54864 184.244589 
L 266.693071 184.093893 
L 266.693071 184.093893 
" style="fill:none;opacity:0.7;stroke:#000000;stroke-linecap:square;stroke-width:1.2;"/>
   </g>
   <g id="line2d_19">
    <path clip-path="url(#pdbf5ed1aa2)" d="M 266.506917 163.879007 
L 263.318261 163.545465 
L 257.118895 162.755503 
L 243.473049 160.863953 
L 238.747441 160.477018 
L 235.124373 160.378112 
L 231.468839 160.497985 
L 228.404903 160.790597 
L 225.751381 161.259103 
L 223.61473 161.85669 
L 221.797542 162.575887 
L 220.31935 163.364378 
L 219.315181 164.080067 
L 218.595115 164.825479 
L 218.311911 165.393237 
L 218.298695 165.801949 
L 218.545403 166.242047 
L 219.106062 166.618244 
L 219.921028 166.901622 
L 221.526901 167.19345 
L 224.16278 167.401167 
L 227.544812 167.445324 
L 232.656027 167.25772 
L 240.699445 166.693023 
L 254.439766 165.709685 
L 264.131292 165.267618 
L 266.957197 165.210786 
L 266.957197 165.210786 
" style="fill:none;opacity:0.7;stroke:#000000;stroke-linecap:square;stroke-width:1.2;"/>
   </g>
   <g id="line2d_20">
    <path clip-path="url(#pdbf5ed1aa2)" d="M 266.782749 144.966793 
L 263.565279 144.534352 
L 258.560981 143.723504 
L 241.531191 140.689754 
L 237.249605 140.269803 
L 234.276679 140.165109 
L 230.825816 140.290796 
L 228.14299 140.621269 
L 225.947878 141.107846 
L 223.729497 141.863789 
L 221.825976 142.781333 
L 220.338626 143.735504 
L 219.335049 144.574323 
L 218.519087 145.542483 
L 218.173268 146.366706 
L 218.185581 146.965273 
L 218.36577 147.390957 
L 218.880851 147.943181 
L 219.565859 148.353427 
L 220.606657 148.735372 
L 222.274373 149.086783 
L 224.847969 149.341731 
L 227.929716 149.401419 
L 231.758889 149.250642 
L 237.370113 148.78196 
L 256.388387 146.956768 
L 264.641849 146.516798 
L 267.368271 146.421619 
L 267.368271 146.421619 
" style="fill:none;opacity:0.7;stroke:#000000;stroke-linecap:square;stroke-width:1.2;"/>
   </g>
   <g id="line2d_21">
    <path clip-path="url(#pdbf5ed1aa2)" d="M 328.299445 220.732976 
L 326.482633 220.681109 
L 317.177167 220.810366 
L 288.861355 221.45973 
L 285.800607 221.773644 
L 281.724028 222.463941 
L 281.788193 222.564233 
L 282.15751 222.682115 
L 283.440634 222.791539 
L 287.2877 222.842663 
L 296.388792 222.684396 
L 329.449039 221.954586 
L 329.894536 221.972715 
L 329.894536 221.972715 
" style="fill:none;opacity:0.7;stroke:#000000;stroke-linecap:square;stroke-width:1.2;"/>
   </g>
   <g id="line2d_22">
    <path clip-path="url(#pdbf5ed1aa2)" d="M 328.720885 201.808372 
L 326.979705 201.715429 
L 298.519825 200.934986 
L 292.570269 201.042663 
L 288.107128 201.326528 
L 285.606542 201.702939 
L 283.752195 202.156182 
L 282.255198 202.735304 
L 281.694756 203.148677 
L 281.512237 203.521489 
L 281.588404 203.788322 
L 281.818397 203.992716 
L 282.538537 204.24575 
L 284.157319 204.427471 
L 287.794521 204.515795 
L 294.018779 204.46036 
L 304.831535 204.080695 
L 329.89181 203.080336 
L 329.89181 203.080336 
" style="fill:none;opacity:0.7;stroke:#000000;stroke-linecap:square;stroke-width:1.2;"/>
   </g>
   <g id="line2d_23">
    <path clip-path="url(#pdbf5ed1aa2)" d="M 329.325157 182.883438 
L 327.81098 182.752981 
L 316.618117 181.879343 
L 306.886268 181.157649 
L 301.09396 180.934374 
L 296.111742 180.963979 
L 291.051229 181.234649 
L 288.180882 181.561183 
L 285.796503 182.048683 
L 283.955074 182.62688 
L 282.612293 183.241813 
L 281.778541 183.847556 
L 281.441985 184.330935 
L 281.409666 184.81522 
L 281.602951 185.143316 
L 282.181461 185.517591 
L 283.164175 185.791268 
L 284.881578 185.991111 
L 288.656363 186.152786 
L 294.092573 186.163467 
L 300.744364 185.914706 
L 310.273426 185.298723 
L 325.949481 184.289008 
L 329.874557 184.183569 
L 329.874557 184.183569 
" style="fill:none;opacity:0.7;stroke:#000000;stroke-linecap:square;stroke-width:1.2;"/>
   </g>
   <g id="line2d_24">
    <path clip-path="url(#pdbf5ed1aa2)" d="M 329.654376 163.959968 
L 326.909691 163.675228 
L 319.375244 162.819553 
L 308.679165 161.578033 
L 302.962558 161.149137 
L 298.3725 161.026925 
L 294.174541 161.138495 
L 290.573653 161.442422 
L 287.812713 161.916156 
L 285.730071 162.494605 
L 283.848862 163.249685 
L 282.544213 163.990022 
L 281.715815 164.698109 
L 281.346407 165.305174 
L 281.298488 165.800655 
L 281.453562 166.213385 
L 281.968078 166.725128 
L 282.756681 167.113458 
L 283.876735 167.416514 
L 286.124274 167.727449 
L 289.913186 167.964905 
L 294.183257 167.998752 
L 299.127367 167.80786 
L 304.739292 167.376544 
L 326.168668 165.466373 
L 330.126992 165.371437 
L 330.126992 165.371437 
" style="fill:none;opacity:0.7;stroke:#000000;stroke-linecap:square;stroke-width:1.2;"/>
   </g>
   <g id="line2d_25">
    <path clip-path="url(#pdbf5ed1aa2)" d="M 329.907186 145.021534 
L 326.610294 144.580878 
L 320.30689 143.601708 
L 307.773207 141.569705 
L 302.525562 140.979152 
L 298.788125 140.753773 
L 295.148068 140.758867 
L 292.342266 140.95409 
L 289.499071 141.393755 
L 287.221548 142.005602 
L 285.214842 142.80554 
L 283.791496 143.572189 
L 282.506644 144.490775 
L 281.647378 145.379548 
L 281.219557 146.205714 
L 281.181695 146.916744 
L 281.40123 147.497616 
L 281.990436 148.173193 
L 282.761017 148.673479 
L 283.822583 149.097938 
L 285.445825 149.479128 
L 287.718255 149.771318 
L 290.875874 149.948687 
L 294.772237 149.93028 
L 299.380729 149.674156 
L 304.912451 149.130724 
L 316.622103 147.64077 
L 323.593622 146.91799 
L 327.869751 146.626949 
L 330.534829 146.568761 
L 330.534829 146.568761 
" style="fill:none;opacity:0.7;stroke:#000000;stroke-linecap:square;stroke-width:1.2;"/>
   </g>
  </g>
 </g>
 <defs>
  <clipPath id="pdbf5ed1aa2">
   <rect height="329.04" width="329.04" x="15.48" y="15.48"/>
  </clipPath>
 </defs>
</svg>
